<svg width="20" height="15" viewBox="0 0 20 15" fill="none" xmlns="http://www.w3.org/2000/svg">
<path d="M6.66683 10.6667L16.5002 0.833333C16.8057 0.527777 17.1946 0.375 17.6668 0.375C18.1391 0.375 18.5279 0.527777 18.8335 0.833333C19.1391 1.13889 19.2918 1.52778 19.2918 2C19.2918 2.47222 19.1391 2.86111 18.8335 3.16667L7.8335 14.1667C7.50016 14.5 7.11127 14.6667 6.66683 14.6667C6.22239 14.6667 5.8335 14.5 5.50016 14.1667L1.16683 9.83333C0.861273 9.52778 0.708496 9.13889 0.708496 8.66667C0.708496 8.19444 0.861273 7.80556 1.16683 7.5C1.47238 7.19444 1.86127 7.04167 2.3335 7.04167C2.80572 7.04167 3.19461 7.19444 3.50016 7.5L6.66683 10.6667Z" fill="black"/>
</svg>

