<svg width="254" height="239" viewBox="0 0 254 239" fill="none" xmlns="http://www.w3.org/2000/svg">
<path d="M44.7481 58.2169L40.1326 90.665L93.4716 97.6467L98.0871 65.1986L44.7481 58.2169Z" fill="#EBEBEB"/>
<path d="M44.7485 58.2104C46.6222 60.4784 48.549 62.6499 50.4404 64.8781C52.3318 67.1064 54.2823 69.2609 56.2209 71.4268C58.2364 73.6947 60.2696 75.9626 62.297 78.1795C62.362 78.2475 62.4152 78.3213 62.4802 78.395C64.2809 80.3681 66.0876 82.3393 67.9002 84.3086L68.1661 84.5921L68.4971 84.3879C70.7904 82.9554 73.0798 81.5152 75.3652 80.0676C75.4466 80.0224 75.5255 79.9732 75.6016 79.9201C78.1983 78.2872 80.7832 76.6373 83.3563 74.9704C85.815 73.3829 88.2856 71.767 90.7385 70.1511C93.1914 68.5352 95.6502 66.8853 98.0853 65.19C95.5556 66.5848 93.0495 68.0646 90.5376 69.5047C88.0256 70.9448 85.5195 72.4473 83.0193 73.9555C80.2374 75.6149 77.4556 77.3026 74.6737 79.0186C72.5892 80.2887 70.5047 81.5663 68.4203 82.8514C66.7831 81.0825 65.134 79.3021 63.4791 77.5502C61.2803 75.1991 59.0718 72.8593 56.8533 70.5309C54.8595 68.4444 52.8598 66.3655 50.8541 64.2941C48.7914 62.2757 46.7936 60.2062 44.7485 58.2104Z" fill="white"/>
<path d="M74.479 79.75C74.5002 79.7695 74.5199 79.7903 74.5381 79.8124L75.2828 80.6061C76.4649 81.8648 77.6884 83.0782 78.9356 84.2688C80.4605 85.7316 82.0268 87.1548 83.6049 88.5666C85.183 89.9783 86.7907 91.3391 88.4397 92.6772C90.0888 94.0152 91.7496 95.342 93.4873 96.578C92.0629 95.0074 90.5321 93.522 89.0367 92.0421C87.5413 90.5623 85.9396 89.1562 84.3733 87.7501C82.807 86.344 81.1757 84.9662 79.5325 83.6225C78.2263 82.5509 76.8905 81.4963 75.5134 80.4871C75.1981 80.2489 74.8789 80.0165 74.5558 79.7897L74.479 79.75Z" fill="white"/>
<path d="M40.4041 89.638C42.4314 88.8896 44.4114 88.0448 46.3619 87.1773C48.3124 86.3099 50.2451 85.38 52.172 84.4502C54.0988 83.5203 55.9961 82.5338 57.8697 81.5132C59.4006 80.6854 60.9137 79.8123 62.3972 78.9278C62.7223 78.735 63.0355 78.5422 63.3488 78.3608L63.4197 78.3154C63.3907 78.3226 63.3601 78.3226 63.3311 78.3154L62.2081 78.752C60.6063 79.37 59.0341 80.0504 57.4796 80.7421C55.5232 81.6153 53.5964 82.5338 51.6755 83.4749C49.7545 84.4161 47.8573 85.3913 45.9777 86.4176C44.0981 87.4438 42.2186 88.4871 40.4041 89.638Z" fill="white"/>
<path d="M58.3411 11.2605L14.2283 21.9995L21.3277 48.8345L65.4405 38.0955L58.3411 11.2605Z" fill="#EBEBEB"/>
<path d="M14.2266 21.9972C16.443 23.1992 18.6713 24.3218 20.8937 25.4898C23.116 26.6578 25.3502 27.7577 27.5844 28.8917C29.9132 30.0597 32.2478 31.1993 34.5825 32.3389L34.7953 32.4523L40.9954 35.4403L41.2969 35.582L41.4919 35.3212C42.8159 33.5012 44.128 31.6755 45.4461 29.8499C45.4948 29.7879 45.5402 29.7235 45.582 29.6571C47.0794 27.5933 48.5609 25.5144 50.0268 23.4203C51.4335 21.4302 52.8343 19.4118 54.2232 17.399C55.6122 15.3862 56.9953 13.3451 58.3606 11.2812C56.8357 13.1409 55.364 15.063 53.8686 16.9511C52.3732 18.8391 50.9133 20.7838 49.4475 22.7229C47.8162 24.8737 46.1908 27.0433 44.5713 29.2319C43.3616 30.861 42.15 32.4958 40.9363 34.1362C39.045 33.2291 37.1654 32.3503 35.2918 31.4771C32.7857 30.2978 30.2796 29.1336 27.7735 27.9845C25.5275 26.9583 23.2756 25.9377 21.0237 24.9398C18.7718 23.9419 16.4962 22.9384 14.2266 21.9972Z" fill="white"/>
<path d="M44.6543 29.8276C44.6747 29.8411 44.6965 29.8525 44.7193 29.8617L45.5645 30.2585C46.9082 30.8822 48.2656 31.4681 49.6369 32.0162C51.3155 32.7079 53.0118 33.3429 54.7141 33.9666C56.4163 34.5903 58.1304 35.1743 59.8621 35.7242C61.5939 36.2742 63.3375 36.8072 65.1107 37.2494C63.4735 36.45 61.8067 35.7412 60.134 35.0552C58.4613 34.3692 56.7473 33.7341 55.051 33.1105C53.3546 32.4868 51.6287 31.8971 49.897 31.3471C48.5198 30.9049 47.1249 30.4797 45.7123 30.1055C45.3872 30.0147 45.0621 29.9354 44.7311 29.8503L44.6543 29.8276Z" fill="white"/>
<path d="M21.207 47.9707C22.5487 46.7743 23.8195 45.51 25.0607 44.2286C26.3019 42.9472 27.5195 41.6432 28.7193 40.3334C29.9192 39.0237 31.0836 37.663 32.2125 36.2965C33.1404 35.1626 34.0507 34.0286 34.9136 32.8947L35.4633 32.1519C35.4633 32.1519 35.4633 32.1122 35.5047 32.0952L35.4455 32.1462C35.1973 32.373 34.9491 32.5942 34.7067 32.8266C33.6546 33.7962 32.6439 34.8054 31.6451 35.8316C30.3979 37.1073 29.1922 38.4171 27.9983 39.7324C26.8043 41.0478 25.634 42.3973 24.5051 43.7693C23.3762 45.1414 22.2473 46.4965 21.207 47.9707Z" fill="white"/>
<path d="M241.153 127.637L195.952 132.723L199.314 160.22L244.516 155.134L241.153 127.637Z" fill="#EBEBEB"/>
<path d="M195.946 132.734C197.98 134.203 200.036 135.598 202.076 137.043C204.115 138.489 206.183 139.85 208.246 141.233C210.309 142.617 212.555 144.108 214.712 145.531L214.907 145.667C216.811 146.918 218.722 148.167 220.641 149.415L220.924 149.591L221.149 149.358C222.725 147.721 224.281 146.079 225.818 144.431C225.878 144.379 225.933 144.322 225.984 144.261C227.745 142.401 229.499 140.526 231.244 138.637C232.911 136.845 234.572 135.019 236.227 133.199C237.882 131.379 239.531 129.531 241.15 127.648C239.377 129.304 237.663 131.05 235.919 132.712C234.176 134.373 232.462 136.113 230.742 137.877C228.831 139.797 226.925 141.742 225.026 143.711C223.602 145.174 222.183 146.648 220.759 148.116C219.021 146.982 217.283 145.877 215.546 144.777C213.229 143.291 210.904 141.821 208.571 140.366C206.491 139.062 204.4 137.773 202.3 136.499C200.155 135.246 198.062 133.953 195.946 132.734Z" fill="white"/>
<path d="M225.02 144.358L225.079 144.398C225.339 144.568 225.605 144.738 225.865 144.897C227.113 145.69 228.377 146.439 229.666 147.164C231.232 148.055 232.828 148.899 234.43 149.739C236.032 150.578 237.651 151.36 239.294 152.126C240.937 152.891 242.586 153.639 244.283 154.297C242.776 153.299 241.215 152.386 239.649 151.502C238.083 150.617 236.475 149.761 234.879 148.928C233.283 148.094 231.652 147.295 230.015 146.529C228.708 145.917 227.379 145.322 226.031 144.772C225.724 144.643 225.41 144.519 225.091 144.398L225.02 144.358Z" fill="white"/>
<path d="M199.31 159.343C200.805 158.323 202.265 157.228 203.642 156.123C205.019 155.017 206.432 153.855 207.779 152.721C209.127 151.587 210.486 150.379 211.799 149.16C212.868 148.174 213.92 147.17 214.937 146.127L215.587 145.458C215.604 145.442 215.62 145.425 215.635 145.407C215.616 145.424 215.594 145.437 215.569 145.446L214.748 146.013C213.566 146.847 212.431 147.714 211.296 148.605C209.884 149.738 208.512 150.872 207.159 152.006C205.805 153.14 204.452 154.348 203.14 155.567C201.827 156.786 200.539 158.033 199.31 159.343Z" fill="white"/>
<path d="M205.593 69.8673L197.832 70.026L193.896 70.0884C192.578 70.1167 191.254 70.0884 189.936 70.1224H189.676V69.8673L189.64 63.5227V63.2393H189.936L197.761 63.2733C200.368 63.2733 202.98 63.3413 205.587 63.3697H205.752V63.5227C205.752 64.6 205.705 65.6716 205.675 66.7262L205.593 69.8673ZM205.593 69.8673L205.516 66.6808C205.486 65.6206 205.451 64.5773 205.439 63.5398L205.599 63.6928C202.992 63.7212 200.38 63.7836 197.773 63.7892L189.947 63.8233L190.243 63.5398V69.8843L189.977 69.6291C191.266 69.6291 192.554 69.6291 193.848 69.6632L197.738 69.7255L205.593 69.8673Z" fill="#EBEBEB"/>
<path d="M196.863 77.868L189.102 78.0267L185.166 78.0891C183.854 78.0891 182.53 78.0891 181.211 78.1231H180.951V77.868L180.922 71.5235V71.2173H181.217L189.043 71.2513C191.65 71.2513 194.262 71.3193 196.869 71.3477H197.034V71.5008C197.034 72.578 196.987 73.6496 196.957 74.7042L196.863 77.868ZM196.863 77.868L196.78 74.6645C196.75 73.6043 196.715 72.561 196.703 71.5235L196.863 71.6765C194.256 71.7049 191.644 71.7673 189.037 71.7729L181.211 71.8069L181.507 71.5235L181.472 77.868L181.211 77.6128C182.5 77.6128 183.788 77.6128 185.077 77.6468L188.966 77.7092L196.863 77.868Z" fill="#EBEBEB"/>
<path d="M214.322 77.868L206.568 78.0267L202.631 78.0891C201.313 78.0891 199.989 78.0891 198.671 78.1231H198.423V77.868L198.387 71.5235V71.2173H198.683L206.509 71.2513C209.121 71.2513 211.728 71.3193 214.334 71.3477H214.5V71.5008C214.5 72.578 214.446 73.6496 214.417 74.7042L214.322 77.868ZM214.322 77.868L214.24 74.6645C214.24 73.6043 214.175 72.561 214.163 71.5235L214.322 71.6765C211.716 71.7049 209.109 71.7673 206.497 71.7729L198.671 71.8069L198.967 71.5235L198.937 77.868L198.671 77.6128C199.96 77.6128 201.248 77.6128 202.543 77.6468L206.432 77.7092L214.322 77.868Z" fill="#EBEBEB"/>
<path d="M244.141 12.4151L236.38 12.5739L232.444 12.6362C231.126 12.6362 229.808 12.6362 228.49 12.6703H228.224V12.4151L228.194 6.0706V5.78711H228.496L236.321 5.82113C238.928 5.82113 241.534 5.88917 244.147 5.91752H244.306V6.0706C244.306 7.14786 244.253 8.21946 244.23 9.27404L244.141 12.4151ZM244.141 12.4151L244.052 9.21167C244.052 8.15142 243.987 7.10817 243.976 6.0706L244.141 6.22368C241.529 6.25203 238.922 6.3144 236.315 6.32007L228.49 6.35409L228.779 6.0706L228.75 12.4151L228.49 12.16C229.778 12.16 231.061 12.16 232.355 12.194L236.25 12.2507L244.141 12.4151Z" fill="#EBEBEB"/>
<path d="M252.871 20.4156L245.117 20.5744L241.18 20.6367C239.868 20.6367 238.544 20.6367 237.226 20.6707H236.96V20.4156L236.93 14.0711V13.7876H237.226L245.052 13.8216C247.658 13.8216 250.265 13.8897 252.877 13.918H253.037V14.0711C253.037 15.1484 252.983 16.2199 252.96 17.2745L252.871 20.4156ZM252.871 20.4156L252.8 17.2122C252.771 16.1519 252.729 15.1087 252.717 14.0711L252.883 14.2242C250.271 14.2525 247.664 14.3149 245.057 14.3206L237.232 14.3546L237.527 14.0711L237.492 20.4156L237.232 20.1605C238.52 20.1605 239.803 20.1605 241.097 20.1945L244.987 20.2568L252.871 20.4156Z" fill="#EBEBEB"/>
<path d="M22.5013 12.421L14.7467 12.5797L10.8103 12.6421C9.49223 12.6704 8.16827 12.6421 6.85021 12.6761H6.59015V12.421L6.55469 6.07646V5.79297H6.85021L14.6758 5.83266C17.2882 5.83266 19.8948 5.89503 22.5013 5.92337H22.6668V6.07646C22.6668 7.15372 22.6136 8.22532 22.5841 9.28557L22.5013 12.421ZM22.5013 12.421L22.4186 9.21753C22.4186 8.16295 22.3536 7.11403 22.3418 6.07646L22.5013 6.23521C19.8948 6.23521 17.2882 6.32026 14.6758 6.32593L6.85021 6.35995L7.14574 6.07646L7.11619 12.421L6.85021 12.1715C8.13871 12.1715 9.42721 12.1715 10.7216 12.1715L14.6049 12.2509L22.5013 12.421Z" fill="#EBEBEB"/>
<path d="M237.22 159.955L244.975 159.797L248.911 159.734C250.229 159.706 251.553 159.734 252.871 159.7H253.131V159.955L253.167 166.3V166.583H252.871L245.046 166.544C242.433 166.544 239.827 166.481 237.22 166.453H237.055V166.3C237.055 165.223 237.108 164.151 237.132 163.091L237.22 159.955ZM237.22 159.955L237.303 163.159C237.303 164.213 237.368 165.262 237.38 166.3L237.22 166.141C239.827 166.113 242.433 166.056 245.046 166.05L252.871 166.016L252.576 166.3L252.605 159.955L252.871 160.205C251.583 160.205 250.294 160.205 249 160.176L245.111 160.114L237.22 159.955Z" fill="#EBEBEB"/>
<path d="M6.85032 159.955L14.605 159.797L18.5414 159.734C19.8535 159.706 21.1775 159.734 22.4955 159.7H22.7615V159.955V166.3V166.583H22.466L14.6404 166.544C12.0339 166.544 9.42732 166.481 6.81486 166.453H6.65527V166.3C6.65527 165.223 6.70847 164.151 6.73211 163.091L6.85032 159.955ZM6.85032 159.955L6.93307 163.159C6.93307 164.213 7.004 165.262 7.01582 166.3L6.85032 166.141C9.46279 166.113 12.0693 166.056 14.6759 166.05L22.5015 166.016L22.2059 166.3L22.2414 159.955L22.5015 160.205C21.213 160.205 19.9304 160.205 18.636 160.176L14.7468 160.114L6.85032 159.955Z" fill="#EBEBEB"/>
<path d="M15.5802 151.955L23.3408 151.796L27.2772 151.734C28.5953 151.705 29.9133 151.734 31.2314 151.7H31.4973V151.955V158.299V158.583H31.1959L23.4058 158.532C20.7993 158.532 18.1927 158.469 15.5802 158.441H15.4207V158.288C15.4207 157.211 15.4738 156.139 15.4975 155.079L15.5802 151.955ZM15.5802 151.955L15.6689 155.158C15.6689 156.213 15.7339 157.262 15.7457 158.299L15.5802 158.141C18.1927 158.112 20.7993 158.056 23.4058 158.05L31.2314 158.016L30.9418 158.299V151.955L31.2018 152.204C29.9133 152.204 28.6307 152.204 27.3363 152.204L23.4708 152.114L15.5802 151.955Z" fill="#EBEBEB"/>
<path d="M173.463 56.5942L253.994 56.5942V52.0074L173.463 52.0074V56.5942Z" fill="#EBEBEB"/>
<path d="M247.882 56.5942H243.101V71.7666H247.882V56.5942Z" fill="#EBEBEB"/>
<path d="M247.882 56.5942H243.101V61.2832H247.882V56.5942Z" fill="#DBDBDB"/>
<path d="M184.356 56.5942H179.574V71.7666H184.356V56.5942Z" fill="#EBEBEB"/>
<path d="M184.356 56.5942H179.574V61.2832H184.356V56.5942Z" fill="#DBDBDB"/>
<path d="M233.644 52.0079V22.7744H225.972V52.0079H233.644Z" fill="#C7C7C7"/>
<path d="M233.65 24.4296V21.2148H225.978V24.4296H233.65Z" fill="#DBDBDB"/>
<path d="M233.644 29.7326V28.541H225.972V29.7326H233.644Z" fill="#DBDBDB"/>
<path d="M233.65 48.1811V44.9663H225.02V48.1811H233.65Z" fill="#DBDBDB"/>
<path d="M225.972 52.0136V17.9097H220.611V52.0136H225.972Z" fill="#DBDBDB"/>
<path d="M224.926 34.2271V21.1128H221.705V34.2271H224.926Z" fill="#EBEBEB"/>
<path d="M186.225 52.0315L211.508 28.0557L207.739 24.3985L182.456 48.3743L186.225 52.0315Z" fill="#C7C7C7"/>
<path d="M191.392 45.6596L201.115 36.4399L198.85 34.2424L189.128 43.462L191.392 45.6596Z" fill="#DBDBDB"/>
<path d="M220.611 52.0191V26.1138H211.503V52.0191H220.611Z" fill="#A6A6A6"/>
<path d="M220.605 49.2693V46.854H211.497V49.2693H220.605Z" fill="#C7C7C7"/>
<path d="M220.605 45.2726V44.3364H211.497V45.2726H220.605Z" fill="#C7C7C7"/>
<path d="M239.938 52.019V27.6729H233.644V52.019H239.938Z" fill="#A6A6A6"/>
<path d="M239.938 49.4335V47.1655H233.644V49.4335H239.938Z" fill="#C7C7C7"/>
<path d="M239.933 34.953V32.6851H233.638V34.953H239.933Z" fill="#C7C7C7"/>
<path d="M239.938 37.3917V36.5122H233.644V37.3917H239.938Z" fill="#C7C7C7"/>
<path d="M5.72119 233.674L36.7575 233.538L67.7938 233.487L129.86 233.391L191.927 233.487L222.963 233.538L254 233.674L222.963 233.816L191.927 233.862L129.86 233.958L67.7938 233.862L36.7575 233.81L5.72119 233.674Z" fill="#263238"/>
<path d="M223.915 183.575C232.527 191.661 233.963 204.174 232.155 215.134C232.107 215.383 231.705 215.315 231.705 215.083C231.705 212.588 231.788 210.116 231.776 207.649C231.729 207.536 231.694 207.428 231.646 207.315C229.4 205.75 227.332 203.981 226.049 201.549C224.613 198.839 224.045 195.777 222.946 192.942C222.846 192.67 223.147 192.749 223.342 192.891C228.585 196.599 230.251 200.585 231.753 205.931C231.722 203.143 231.417 200.364 230.843 197.631C229.714 192.573 227.473 187.561 223.685 183.808C223.653 183.779 223.634 183.738 223.633 183.696C223.632 183.653 223.648 183.612 223.679 183.581C223.709 183.55 223.752 183.532 223.796 183.531C223.84 183.53 223.883 183.546 223.915 183.575Z" fill="#263238"/>
<path d="M222.296 184.517C220.813 184.568 219.885 186.836 218.75 187.499C218.629 187.594 218.488 187.663 218.337 187.702C218.187 187.741 218.029 187.749 217.875 187.726C217.72 187.703 217.573 187.649 217.442 187.568C217.31 187.487 217.198 187.381 217.113 187.256C215.966 185.719 217.538 183.854 219.016 182.776C217.958 183.19 217.083 183.91 215.942 184.131C215.797 184.177 215.643 184.191 215.49 184.175C215.338 184.158 215.192 184.11 215.061 184.034C214.93 183.958 214.817 183.856 214.731 183.735C214.644 183.614 214.586 183.477 214.559 183.332C214.057 181.246 216.787 180.316 218.661 180.27C217.751 179.669 215.15 178.002 216.533 177.209C217.916 176.415 220.99 178.751 221.989 179.528C223.449 180.662 225.198 182.362 225.263 184.154C225.334 186.235 223.437 184.954 222.296 184.517Z" fill="#FFC727"/>
<path opacity="0.1" d="M222.296 184.517C220.813 184.568 219.885 186.836 218.75 187.499C218.629 187.594 218.488 187.663 218.337 187.702C218.187 187.741 218.029 187.749 217.875 187.726C217.72 187.703 217.573 187.649 217.442 187.568C217.31 187.487 217.198 187.381 217.113 187.256C215.966 185.719 217.538 183.854 219.016 182.776C217.958 183.19 217.083 183.91 215.942 184.131C215.797 184.177 215.643 184.191 215.49 184.175C215.338 184.158 215.192 184.11 215.061 184.034C214.93 183.958 214.817 183.856 214.731 183.735C214.644 183.614 214.586 183.477 214.559 183.332C214.057 181.246 216.787 180.316 218.661 180.27C217.751 179.669 215.15 178.002 216.533 177.209C217.916 176.415 220.99 178.751 221.989 179.528C223.449 180.662 225.198 182.362 225.263 184.154C225.334 186.235 223.437 184.954 222.296 184.517Z" fill="black"/>
<path d="M222.721 184.868C220.83 184.04 217.189 185.231 216.882 184.545C216.255 183.144 219.163 182.18 220.73 181.999C219.287 181.619 216.515 181.024 216.592 179.686C216.699 178.053 220.842 179.459 222.94 181.001C225.582 182.946 225.564 184.817 225.127 185.197C224.536 185.707 223.035 185.004 222.721 184.868Z" fill="#FFC727"/>
<path d="M243.526 182.777C234.601 190.544 232.657 202.995 234.04 214.011C234.075 214.261 234.477 214.21 234.489 213.972C234.584 211.483 234.607 209.005 234.714 206.544L234.856 206.215C237.167 204.736 239.3 203.04 240.677 200.659C242.22 198 242.906 194.961 244.117 192.154C244.236 191.888 243.928 191.956 243.727 192.086C238.343 195.602 236.516 199.525 234.802 204.798C234.947 202.013 235.363 199.248 236.044 196.537C237.373 191.525 239.809 186.598 243.727 182.986C243.893 182.862 243.68 182.635 243.526 182.777Z" fill="#263238"/>
<path d="M245.116 183.774C246.594 183.876 247.433 186.178 248.562 186.887C248.679 186.986 248.817 187.06 248.966 187.104C249.115 187.149 249.272 187.163 249.427 187.145C249.582 187.127 249.732 187.079 249.866 187.002C250 186.925 250.116 186.822 250.205 186.7C251.387 185.208 249.916 183.264 248.485 182.164C249.52 182.617 250.365 183.383 251.494 183.632C251.638 183.684 251.792 183.704 251.945 183.694C252.098 183.683 252.247 183.64 252.382 183.569C252.516 183.498 252.633 183.4 252.725 183.282C252.816 183.164 252.88 183.028 252.912 182.884C253.503 180.82 250.802 179.788 248.935 179.675C249.868 179.108 252.534 177.554 251.181 176.692C249.827 175.831 246.671 178.07 245.642 178.813C244.135 179.896 242.321 181.534 242.185 183.315C242.002 185.379 243.934 184.171 245.116 183.774Z" fill="#FFC727"/>
<path opacity="0.1" d="M245.116 183.774C246.594 183.876 247.433 186.178 248.562 186.887C248.679 186.986 248.817 187.06 248.966 187.104C249.115 187.149 249.272 187.163 249.427 187.145C249.582 187.127 249.732 187.079 249.866 187.002C250 186.925 250.116 186.822 250.205 186.7C251.387 185.208 249.916 183.264 248.485 182.164C249.52 182.617 250.365 183.383 251.494 183.632C251.638 183.684 251.792 183.704 251.945 183.694C252.098 183.683 252.247 183.64 252.382 183.569C252.516 183.498 252.633 183.4 252.725 183.282C252.816 183.164 252.88 183.028 252.912 182.884C253.503 180.82 250.802 179.788 248.935 179.675C249.868 179.108 252.534 177.554 251.181 176.692C249.827 175.831 246.671 178.07 245.642 178.813C244.135 179.896 242.321 181.534 242.185 183.315C242.002 185.379 243.934 184.171 245.116 183.774Z" fill="black"/>
<path d="M244.661 184.109C246.588 183.355 250.176 184.676 250.513 184.001C251.198 182.623 248.332 181.557 246.766 181.314C248.225 180.99 251.021 180.491 250.986 179.153C250.95 177.52 246.754 178.773 244.596 180.236C241.877 182.085 241.818 183.956 242.232 184.347C242.817 184.886 244.348 184.234 244.661 184.109Z" fill="#FFC727"/>
<path d="M234.401 203.289C233.795 207.443 232.868 211.548 231.629 215.57C231.621 215.61 231.604 215.647 231.581 215.681C231.558 215.714 231.528 215.743 231.493 215.765C231.458 215.788 231.419 215.803 231.378 215.811C231.337 215.819 231.294 215.819 231.253 215.811C231.212 215.803 231.173 215.788 231.138 215.765C231.103 215.743 231.073 215.714 231.05 215.681C231.027 215.648 231.01 215.61 231.002 215.571C230.994 215.531 230.994 215.491 231.002 215.451C231.593 211.664 232.657 207.95 233.242 204.162C233.884 200.334 234.114 196.453 233.928 192.579C233.556 186.201 231.747 179.419 227.426 174.436C227.332 174.322 227.533 174.152 227.633 174.26C236.316 183.978 234.939 195.89 234.927 196.939C236.156 192.919 237.427 188.31 242.079 184.21C242.279 184.035 242.433 184.12 242.404 184.42C241.57 191.882 239.407 195.76 234.897 199.763C234.755 200.948 234.596 202.127 234.401 203.289Z" fill="#263238"/>
<path d="M227.332 175.541C225.771 174.872 223.614 176.783 222.065 176.913C221.89 176.953 221.708 176.956 221.531 176.924C221.354 176.891 221.186 176.823 221.038 176.724C220.89 176.625 220.766 176.498 220.673 176.35C220.58 176.201 220.521 176.036 220.499 175.864C220.115 173.727 222.739 172.519 224.826 172.139C223.508 172.06 222.219 172.395 220.931 172.06C220.755 172.038 220.587 171.98 220.438 171.89C220.288 171.8 220.161 171.68 220.064 171.539C219.967 171.397 219.902 171.237 219.876 171.07C219.849 170.903 219.86 170.732 219.908 170.569C220.499 168.159 223.803 168.511 225.771 169.373C225.145 168.307 223.307 165.336 225.18 165.166C227.054 164.995 228.998 168.919 229.625 170.206C230.547 172.094 231.463 174.702 230.594 176.585C229.584 178.79 228.283 176.545 227.332 175.541Z" fill="#FFC727"/>
<path opacity="0.1" d="M227.332 175.541C225.771 174.872 223.614 176.783 222.065 176.913C221.89 176.953 221.708 176.956 221.531 176.924C221.354 176.891 221.186 176.823 221.038 176.724C220.89 176.625 220.766 176.498 220.673 176.35C220.58 176.201 220.521 176.036 220.499 175.864C220.115 173.727 222.739 172.519 224.826 172.139C223.508 172.06 222.219 172.395 220.931 172.06C220.755 172.038 220.587 171.98 220.438 171.89C220.288 171.8 220.161 171.68 220.064 171.539C219.967 171.397 219.902 171.237 219.876 171.07C219.849 170.903 219.86 170.732 219.908 170.569C220.499 168.159 223.803 168.511 225.771 169.373C225.145 168.307 223.307 165.336 225.18 165.166C227.054 164.995 228.998 168.919 229.625 170.206C230.547 172.094 231.463 174.702 230.594 176.585C229.584 178.79 228.283 176.545 227.332 175.541Z" fill="black"/>
<path d="M227.592 176.108C226.061 174.339 221.681 173.812 221.681 172.95C221.764 171.198 225.287 171.601 227.001 172.168C225.701 171.079 223.141 169.123 223.927 167.774C224.897 166.13 228.455 169.588 229.838 172.202C231.558 175.496 230.553 177.435 229.903 177.611C229.028 177.866 227.846 176.409 227.592 176.108Z" fill="#FFC727"/>
<path d="M240.11 205.535L243.934 233.612H220.635C221.114 231.123 225.452 205.501 225.452 205.501L240.11 205.535Z" fill="#FFC727"/>
<path d="M203.542 12.4209H101.697C100.331 12.4328 98.981 12.7027 97.724 13.2152C96.4669 13.7278 95.3275 14.4729 94.3708 15.408C93.4141 16.3431 92.6588 17.45 92.1482 18.6652C91.6375 19.8804 91.3815 21.1803 91.3948 22.4905V223.604C91.3711 226.249 92.4427 228.795 94.3743 230.683C96.3058 232.571 98.9394 233.647 101.697 233.674H203.542C206.301 233.648 208.936 232.574 210.87 230.686C212.804 228.798 213.877 226.251 213.855 223.604V22.4905C213.868 21.1795 213.611 19.8791 213.099 18.6635C212.588 17.4478 211.831 16.3408 210.874 15.4057C209.916 14.4705 208.775 13.7256 207.517 13.2135C206.259 12.7013 204.908 12.432 203.542 12.4209ZM207.413 217.384C207.413 222.68 203.276 226.961 198.181 226.961H107.07C101.963 226.961 97.8255 222.68 97.8255 217.384V30.1107C97.8255 19.3381 101.963 18.7711 107.07 18.7711H125.321C126.385 18.7711 127.254 19.905 127.254 21.3622V21.9802C127.254 25.3367 129.169 25.3481 131.516 25.3481H173.723C176.087 25.3481 178.002 25.3481 178.002 21.9802V21.3905C178.002 19.9561 178.859 18.7994 179.935 18.7994H198.181C203.281 18.7994 207.413 20.2339 207.413 30.139V217.384Z" fill="#263238"/>
<path d="M207.419 30.1106V217.384C207.419 222.68 203.281 226.961 198.187 226.961H107.075C101.969 226.961 97.8313 222.68 97.8313 217.384V30.1106C97.8313 19.338 101.969 18.771 107.075 18.771H125.327C126.391 18.771 127.26 19.905 127.26 21.3621V21.9801C127.26 25.3366 129.175 25.348 131.521 25.348H173.729C176.093 25.348 178.008 25.348 178.008 21.9801V21.3904C178.008 19.956 178.865 18.7993 179.941 18.7993H198.187C203.287 18.7993 207.419 20.2338 207.419 30.1106Z" fill="white"/>
<path d="M207.419 30.1165V47.1259H97.8313V30.1165C97.8313 19.3438 101.969 18.7769 107.075 18.7769H125.327C126.391 18.7769 127.26 19.9108 127.26 21.368V21.986C127.26 25.3425 129.175 25.3538 131.521 25.3538H173.729C176.093 25.3538 178.008 25.3538 178.008 21.986V21.3963C178.008 19.9618 178.865 18.8052 179.941 18.8052H198.187C203.287 18.8052 207.419 20.2397 207.419 30.1165Z" fill="#FFC727"/>
<path d="M158.379 21.0222H146.865C146.676 21.0207 146.496 20.9478 146.363 20.8193C146.23 20.6908 146.156 20.5171 146.156 20.3361C146.156 20.2468 146.174 20.1583 146.21 20.0758C146.245 19.9932 146.298 19.9182 146.364 19.855C146.429 19.7919 146.508 19.7417 146.594 19.7076C146.68 19.6734 146.772 19.6558 146.865 19.6558H158.379C158.472 19.6558 158.564 19.6734 158.65 19.7076C158.736 19.7417 158.814 19.7919 158.88 19.855C158.946 19.9182 158.998 19.9932 159.034 20.0758C159.07 20.1583 159.088 20.2468 159.088 20.3361C159.089 20.426 159.071 20.515 159.036 20.5982C159 20.6815 158.948 20.7571 158.882 20.8209C158.816 20.8847 158.738 20.9353 158.652 20.9699C158.565 21.0044 158.472 21.0222 158.379 21.0222Z" fill="white"/>
<path d="M114.487 34.8169H104.977V40.6001H114.487V34.8169Z" fill="white"/>
<path d="M114.493 34.8169C114.109 35.1684 113.719 35.5086 113.311 35.8545L112.129 36.8694L110.946 37.9126L110.911 37.9466L109.764 38.8595L109.711 38.8992L109.658 38.8595L108.582 37.941H108.547C108.133 37.5951 107.719 37.2492 107.311 36.8977L106.129 35.8828C105.745 35.537 105.355 35.1968 104.947 34.8452C105.355 35.1514 105.757 35.4632 106.129 35.7751C106.502 36.0869 106.933 36.4044 107.311 36.7276C107.69 37.0508 108.204 37.442 108.647 37.8049L109.64 38.6213L110.639 37.8049L111.969 36.7276L113.151 35.7808L114.493 34.8169Z" fill="#FFC727"/>
<path d="M108.742 37.9067L108.589 38.0258C108.352 38.2186 108.104 38.4057 107.856 38.5928C107.607 38.7799 107.265 39.0237 106.934 39.2335C106.603 39.4433 106.307 39.6474 105.988 39.8458C105.669 40.0443 105.338 40.237 105.007 40.4128C105.291 40.169 105.598 39.9422 105.893 39.7211C106.189 39.5 106.484 39.2902 106.821 39.0804C107.158 38.8706 107.448 38.6665 107.767 38.468C108.086 38.2696 108.287 38.1562 108.553 38.0088C108.612 37.9733 108.673 37.9411 108.736 37.9124L108.742 37.9067Z" fill="#FFC727"/>
<path d="M114.493 40.4182C114.156 40.2424 113.831 40.0496 113.512 39.8512C113.193 39.6527 112.874 39.4486 112.56 39.2388C112.247 39.0291 111.94 38.8193 111.638 38.5982C111.337 38.377 111.148 38.2353 110.911 38.0312L110.758 37.9121L110.941 38.0142C111.209 38.1616 111.469 38.3147 111.721 38.4734C112.046 38.6719 112.359 38.876 112.673 39.0858C112.986 39.2955 113.293 39.5053 113.595 39.7264C113.896 39.9476 114.174 40.1744 114.493 40.4182Z" fill="#FFC727"/>
<path d="M116.526 34.8169C116.526 35.2041 116.406 35.5825 116.182 35.9043C115.958 36.2261 115.639 36.4768 115.266 36.6247C114.893 36.7725 114.483 36.8109 114.087 36.735C113.691 36.6591 113.328 36.4722 113.043 36.1981C112.758 35.9239 112.564 35.5749 112.486 35.1951C112.408 34.8152 112.449 34.4218 112.605 34.0644C112.76 33.7071 113.022 33.402 113.358 33.1877C113.694 32.9735 114.089 32.8597 114.493 32.8608C115.033 32.8623 115.55 33.0691 115.931 33.4358C116.312 33.8024 116.526 34.2991 116.526 34.8169Z" fill="#455A64"/>
<path d="M115.161 35.2082C115.16 35.2493 115.142 35.2882 115.111 35.3168C115.08 35.3453 115.039 35.3613 114.996 35.3613V35.5767C114.989 35.613 114.968 35.6457 114.939 35.6692C114.909 35.6927 114.872 35.7056 114.833 35.7056C114.795 35.7056 114.757 35.6927 114.728 35.6692C114.698 35.6457 114.678 35.613 114.671 35.5767V35.3613H113.749C113.73 35.3627 113.712 35.3604 113.695 35.3546C113.677 35.3487 113.661 35.3394 113.648 35.3272C113.633 35.3134 113.62 35.2968 113.612 35.2782C113.604 35.2597 113.599 35.2397 113.599 35.2195C113.599 35.1993 113.604 35.1793 113.612 35.1608C113.62 35.1423 113.633 35.1256 113.648 35.1118L114.677 33.7964H114.724H114.818V34.9303C114.857 34.8867 114.912 34.8596 114.971 34.8548C115.03 34.85 115.089 34.868 115.135 34.9048C115.18 34.9417 115.208 34.9943 115.213 35.0512C115.218 35.1081 115.2 35.1646 115.161 35.2082ZM114.641 34.3577L114.05 35.0551H114.641V34.3577Z" fill="white"/>
<path d="M122.177 22.8426L121.999 23.0129L121.899 23.1093C121.448 22.6773 120.837 22.4346 120.2 22.4346C119.562 22.4346 118.951 22.6773 118.5 23.1093L118.406 23.0129C118.347 22.9561 118.288 22.9051 118.234 22.8483L118.459 22.6554C118.616 22.5312 118.789 22.4264 118.973 22.3433C119.19 22.2385 119.42 22.164 119.659 22.1221C119.771 22.1221 119.883 22.1221 119.996 22.0767H120.297H120.528C120.742 22.0996 120.953 22.1492 121.154 22.2242C121.301 22.275 121.444 22.3376 121.58 22.4114C121.723 22.4918 121.859 22.5828 121.988 22.6838L122.171 22.8483L122.177 22.8426Z" fill="white"/>
<path d="M119.056 23.6421L118.779 23.3754C119.077 23.0692 119.475 22.8692 119.907 22.808C120.219 22.7661 120.536 22.7957 120.833 22.8944C121.13 22.993 121.398 23.1579 121.616 23.3754L121.338 23.6421C121.034 23.3537 120.624 23.1925 120.197 23.1939C119.985 23.1922 119.776 23.231 119.58 23.308C119.384 23.3849 119.206 23.4985 119.056 23.6421Z" fill="white"/>
<path d="M121.06 23.9081C120.966 23.9932 120.871 24.084 120.782 24.1748C120.705 24.0996 120.613 24.0401 120.512 24.0001C120.41 23.9602 120.301 23.9404 120.191 23.9421C120.081 23.9397 119.972 23.9592 119.871 23.9992C119.769 24.0392 119.677 24.099 119.6 24.1748L119.323 23.9081C119.436 23.7973 119.571 23.7092 119.72 23.6492C119.869 23.5891 120.03 23.5581 120.191 23.5581C120.353 23.5581 120.513 23.5891 120.662 23.6492C120.812 23.7092 120.947 23.7973 121.06 23.9081Z" fill="white"/>
<path d="M120.446 24.4127C120.447 24.4614 120.433 24.5093 120.405 24.5503C120.378 24.5913 120.338 24.6235 120.291 24.6426C120.245 24.6618 120.193 24.6671 120.143 24.6579C120.093 24.6486 120.048 24.6253 120.012 24.5908C119.976 24.5564 119.951 24.5124 119.942 24.4645C119.932 24.4167 119.938 24.3672 119.958 24.3223C119.978 24.2775 120.011 24.2395 120.054 24.2131C120.097 24.1868 120.147 24.1733 120.197 24.1744C120.263 24.1744 120.326 24.1995 120.373 24.2442C120.419 24.2889 120.446 24.3495 120.446 24.4127Z" fill="white"/>
<path d="M104.977 23.3522C104.977 23.2142 105.02 23.0794 105.1 22.9647C105.179 22.85 105.293 22.7607 105.426 22.7079C105.559 22.6551 105.705 22.6413 105.846 22.6682C105.987 22.6951 106.116 22.7615 106.218 22.859C106.32 22.9566 106.389 23.0808 106.417 23.2161C106.445 23.3514 106.431 23.4916 106.376 23.619C106.321 23.7465 106.228 23.8554 106.108 23.932C105.988 24.0087 105.848 24.0496 105.704 24.0496C105.609 24.0496 105.514 24.0315 105.426 23.9965C105.338 23.9614 105.257 23.9101 105.19 23.8453C105.122 23.7805 105.069 23.7037 105.032 23.619C104.996 23.5344 104.977 23.4438 104.977 23.3522Z" fill="white"/>
<path d="M107.264 23.3522C107.264 23.2142 107.307 23.0794 107.387 22.9647C107.467 22.85 107.58 22.7607 107.713 22.7079C107.846 22.6551 107.992 22.6413 108.133 22.6682C108.274 22.6951 108.404 22.7615 108.505 22.859C108.607 22.9566 108.676 23.0808 108.704 23.2161C108.732 23.3514 108.718 23.4916 108.663 23.619C108.608 23.7465 108.515 23.8554 108.395 23.932C108.276 24.0087 108.135 24.0496 107.991 24.0496C107.799 24.0496 107.614 23.9761 107.477 23.8453C107.341 23.7145 107.264 23.5371 107.264 23.3522Z" fill="white"/>
<path d="M109.552 23.3522C109.552 23.2142 109.595 23.0794 109.675 22.9647C109.754 22.85 109.868 22.7607 110.001 22.7079C110.134 22.6551 110.28 22.6413 110.421 22.6682C110.562 22.6951 110.691 22.7615 110.793 22.859C110.895 22.9566 110.964 23.0808 110.992 23.2161C111.02 23.3514 111.006 23.4916 110.951 23.619C110.896 23.7465 110.802 23.8554 110.683 23.932C110.563 24.0087 110.423 24.0496 110.279 24.0496C110.086 24.0496 109.901 23.9761 109.765 23.8453C109.629 23.7145 109.552 23.5371 109.552 23.3522Z" fill="white"/>
<path d="M111.839 23.3522C111.839 23.2142 111.882 23.0794 111.962 22.9647C112.042 22.85 112.155 22.7607 112.288 22.7079C112.421 22.6551 112.567 22.6413 112.708 22.6682C112.849 22.6951 112.979 22.7615 113.08 22.859C113.182 22.9566 113.251 23.0808 113.279 23.2161C113.307 23.3514 113.293 23.4916 113.238 23.619C113.183 23.7465 113.09 23.8554 112.97 23.932C112.85 24.0087 112.71 24.0496 112.566 24.0496C112.471 24.0496 112.376 24.0315 112.288 23.9965C112.2 23.9614 112.12 23.9101 112.052 23.8453C111.985 23.7805 111.931 23.7037 111.894 23.619C111.858 23.5344 111.839 23.4438 111.839 23.3522Z" fill="white"/>
<path d="M114.126 23.3522C114.126 23.2142 114.169 23.0794 114.249 22.9647C114.329 22.85 114.442 22.7607 114.575 22.7079C114.708 22.6551 114.854 22.6413 114.995 22.6682C115.136 22.6951 115.266 22.7615 115.368 22.859C115.469 22.9566 115.538 23.0808 115.566 23.2161C115.595 23.3514 115.58 23.4916 115.525 23.619C115.47 23.7465 115.377 23.8554 115.257 23.932C115.138 24.0087 114.997 24.0496 114.853 24.0496C114.758 24.0496 114.663 24.0315 114.575 23.9965C114.487 23.9614 114.407 23.9101 114.339 23.8453C114.272 23.7805 114.218 23.7037 114.182 23.619C114.145 23.5344 114.126 23.4438 114.126 23.3522Z" fill="white"/>
<path d="M199.191 24.8779H193.281V22.2471H199.191V24.8779ZM193.582 24.5887H198.902V22.5362H193.582V24.5887Z" fill="white"/>
<path d="M197.584 22.6948H193.771V24.4298H197.584V22.6948Z" fill="white"/>
<path d="M199.723 22.8594H199.197V24.2655H199.723V22.8594Z" fill="white"/>
<path d="M190.857 35.7638C190.621 35.4686 190.302 35.2444 189.937 35.1177C189.572 34.9909 189.178 34.9668 188.799 35.0483C188.421 35.1298 188.074 35.3135 187.801 35.5776C187.528 35.8417 187.339 36.1752 187.257 36.5389C187.175 36.9026 187.203 37.2812 187.338 37.63C187.473 37.9788 187.709 38.2834 188.019 38.5076C188.328 38.7319 188.698 38.8666 189.085 38.8958C189.472 38.925 189.859 38.8475 190.201 38.6724C190.301 38.6226 190.396 38.5637 190.485 38.4966C190.648 38.38 190.79 38.2382 190.905 38.077C191.155 37.7371 191.286 37.3292 191.277 36.9129C191.269 36.4967 191.121 36.094 190.857 35.7638ZM189.988 37.8786C189.899 37.9415 189.802 37.993 189.699 38.0317C189.439 38.1312 189.151 38.1414 188.884 38.0604C188.617 37.9794 188.388 37.8122 188.235 37.5874C188.082 37.3625 188.015 37.0938 188.045 36.8268C188.075 36.5599 188.201 36.3112 188.4 36.123C188.6 35.9349 188.862 35.8188 189.14 35.7946C189.419 35.7704 189.698 35.8396 189.93 35.9903C190.161 36.141 190.331 36.364 190.411 36.6214C190.491 36.8788 190.475 37.1548 190.367 37.4023C190.285 37.5897 190.155 37.7537 189.988 37.8786Z" fill="white"/>
<path d="M182.216 35.1172H176.814V40.2994H182.216V35.1172Z" fill="white"/>
<path d="M179.811 36.0811H179.219V39.3412H179.811V36.0811Z" fill="#FFC727"/>
<path d="M177.812 37.4248V37.9922H181.211V37.4248H177.812Z" fill="#FFC727"/>
<path d="M199.191 35.4521C199.191 35.5408 199.164 35.6275 199.113 35.7012C199.061 35.7749 198.988 35.8323 198.903 35.8663C198.818 35.9002 198.724 35.9091 198.633 35.8918C198.543 35.8745 198.459 35.8318 198.394 35.7691C198.329 35.7064 198.284 35.6265 198.266 35.5396C198.248 35.4526 198.258 35.3625 198.293 35.2806C198.328 35.1987 198.388 35.1287 198.465 35.0794C198.542 35.0302 198.632 35.0039 198.724 35.0039C198.786 35.0039 198.846 35.0155 198.903 35.038C198.96 35.0606 199.011 35.0936 199.054 35.1352C199.098 35.1768 199.132 35.2262 199.156 35.2806C199.179 35.335 199.191 35.3933 199.191 35.4521Z" fill="white"/>
<path d="M199.191 37.7651C199.191 37.884 199.142 37.998 199.054 38.0821C198.967 38.1662 198.848 38.2134 198.724 38.2134C198.6 38.2134 198.482 38.1662 198.394 38.0821C198.307 37.998 198.257 37.884 198.257 37.7651C198.257 37.7063 198.269 37.648 198.293 37.5936C198.316 37.5392 198.351 37.4898 198.394 37.4482C198.437 37.4066 198.489 37.3735 198.546 37.351C198.602 37.3285 198.663 37.3169 198.724 37.3169C198.786 37.3169 198.846 37.3285 198.903 37.351C198.96 37.3735 199.011 37.4066 199.054 37.4482C199.098 37.4898 199.132 37.5392 199.156 37.5936C199.179 37.648 199.191 37.7063 199.191 37.7651Z" fill="white"/>
<path d="M199.191 40.1011C199.191 40.1599 199.179 40.2182 199.156 40.2726C199.132 40.327 199.098 40.3764 199.054 40.418C199.011 40.4597 198.96 40.4927 198.903 40.5152C198.846 40.5377 198.786 40.5493 198.724 40.5493C198.663 40.5493 198.602 40.5377 198.546 40.5152C198.489 40.4927 198.437 40.4597 198.394 40.418C198.351 40.3764 198.316 40.327 198.293 40.2726C198.269 40.2182 198.257 40.1599 198.257 40.1011C198.257 39.9822 198.307 39.8682 198.394 39.7841C198.482 39.7001 198.6 39.6528 198.724 39.6528C198.848 39.6528 198.967 39.7001 199.054 39.7841C199.142 39.8682 199.191 39.9822 199.191 40.1011Z" fill="white"/>
<path d="M207.413 47.1035H97.8313V63.3362H207.413V47.1035Z" fill="#EBEBEB"/>
<path d="M115.675 58.3576C115.332 58.5611 114.956 58.7104 114.564 58.7998C113.627 59.0156 112.64 58.8846 111.799 58.433C110.958 57.9815 110.326 57.2425 110.028 56.3635C109.73 55.4845 109.788 54.5301 110.191 53.6905C110.594 52.8509 111.312 52.1879 112.202 51.8337C113.092 51.4795 114.089 51.4601 114.993 51.7794C115.897 52.0987 116.643 52.7332 117.081 53.5564C117.519 54.3796 117.618 55.331 117.357 56.2208C117.097 57.1107 116.496 57.8737 115.675 58.3576Z" fill="#FFC727"/>
<path d="M114.795 54.7746C114.795 54.9989 114.725 55.2181 114.595 55.4046C114.466 55.5911 114.281 55.7364 114.065 55.8222C113.849 55.9081 113.611 55.9305 113.382 55.8868C113.153 55.843 112.942 55.735 112.777 55.5764C112.611 55.4178 112.499 55.2158 112.453 54.9958C112.408 54.7758 112.431 54.5478 112.52 54.3406C112.61 54.1334 112.761 53.9563 112.956 53.8317C113.15 53.7071 113.379 53.6406 113.613 53.6406C113.926 53.6406 114.227 53.7601 114.448 53.9728C114.67 54.1854 114.795 54.4738 114.795 54.7746Z" fill="white"/>
<path d="M115.675 57.8927V58.3576C115.332 58.5611 114.957 58.7104 114.564 58.7999C114.066 58.9194 113.547 58.9419 113.04 58.8659C112.532 58.79 112.046 58.6171 111.609 58.3576V57.8927C111.609 57.3784 111.822 56.8852 112.201 56.5216C112.58 56.1579 113.094 55.9536 113.63 55.9536C114.166 55.9536 114.681 56.1579 115.06 56.5216C115.439 56.8852 115.652 57.3784 115.652 57.8927H115.675Z" fill="white"/>
<path d="M137.757 57.6602H132.674L134.748 55.2222L132.674 52.7842H137.757L139.832 55.2222L137.757 57.6602Z" fill="white"/>
<path d="M124.695 52.7842L125.522 54.3887L127.366 54.6439L126.03 55.8969L126.349 57.6602L124.695 56.8267L123.045 57.6602L123.359 55.8969L122.023 54.6439L123.867 54.3887L124.695 52.7842Z" fill="#FFC727"/>
<path d="M173.469 54.23H143.479V56.2144H173.469V54.23Z" fill="#263238"/>
<path d="M197.584 54.23H185.828V56.2144H197.584V54.23Z" fill="#455A64"/>
<path d="M115.675 74.6188C115.332 74.8223 114.956 74.9716 114.564 75.061C113.627 75.2768 112.64 75.1458 111.799 74.6943C110.958 74.2427 110.326 73.5038 110.028 72.6248C109.73 71.7458 109.788 70.7913 110.191 69.9517C110.594 69.1122 111.312 68.4492 112.202 68.0949C113.092 67.7407 114.089 67.7213 114.993 68.0406C115.897 68.3599 116.643 68.9944 117.081 69.8176C117.519 70.6408 117.618 71.5922 117.357 72.4821C117.097 73.3719 116.496 74.1349 115.675 74.6188Z" fill="#455A64"/>
<path d="M114.795 71.0353C114.795 71.2596 114.725 71.4788 114.595 71.6653C114.466 71.8518 114.281 71.9971 114.065 72.083C113.849 72.1688 113.611 72.1913 113.382 72.1475C113.153 72.1038 112.942 71.9957 112.777 71.8372C112.611 71.6786 112.499 71.4765 112.453 71.2566C112.408 71.0366 112.431 70.8086 112.52 70.6014C112.61 70.3942 112.761 70.2171 112.956 70.0925C113.15 69.9679 113.379 69.9014 113.613 69.9014C113.926 69.9014 114.227 70.0208 114.448 70.2335C114.67 70.4462 114.795 70.7346 114.795 71.0353Z" fill="white"/>
<path d="M115.675 74.1256V74.6188C115.332 74.8224 114.957 74.9717 114.564 75.0611C114.066 75.1823 113.547 75.2056 113.039 75.1296C112.532 75.0536 112.045 74.8799 111.609 74.6188V74.1539C111.609 73.6396 111.822 73.1464 112.201 72.7828C112.58 72.4191 113.094 72.2148 113.63 72.2148C114.166 72.2148 114.681 72.4191 115.06 72.7828C115.439 73.1464 115.652 73.6396 115.652 74.1539L115.675 74.1256Z" fill="white"/>
<path d="M137.757 73.8931H132.674L134.748 71.4551L132.674 69.0171H137.757L139.832 71.4551L137.757 73.8931Z" fill="white"/>
<path d="M137.828 74.0521H132.361L134.56 71.4723L132.361 68.8926H137.828L140.021 71.4723L137.828 74.0521ZM132.987 73.7686H137.716L139.666 71.4723L137.716 69.2044H132.987L134.938 71.4723L132.987 73.7686Z" fill="#EBEBEB"/>
<path d="M124.695 69.0171L125.522 70.6216L127.366 70.8768L126.03 72.1298L126.349 73.8931L124.695 73.0597L123.045 73.8931L123.359 72.1298L122.023 70.8768L123.867 70.6216L124.695 69.0171Z" fill="#FFC727"/>
<path d="M173.469 70.4629H143.479V72.4473H173.469V70.4629Z" fill="#263238"/>
<path d="M197.584 70.4629H185.828V72.4473H197.584V70.4629Z" fill="#455A64"/>
<path d="M207.413 79.5688H97.8313V95.8015H207.413V79.5688Z" fill="#EBEBEB"/>
<path d="M115.675 90.8232C115.331 91.0262 114.956 91.1773 114.564 91.2712C113.622 91.493 112.628 91.3661 111.78 90.9157C110.931 90.4654 110.291 89.7247 109.986 88.8415C109.682 87.9583 109.736 86.9974 110.137 86.1506C110.539 85.3039 111.258 84.6334 112.152 84.273C113.046 83.9127 114.049 83.8889 114.961 84.2064C115.872 84.5239 116.625 85.1594 117.07 85.9861C117.515 86.8128 117.618 87.7699 117.359 88.6665C117.101 89.5631 116.5 90.3332 115.675 90.8232Z" fill="#FFC727"/>
<path d="M114.795 87.2678C114.795 87.492 114.725 87.7113 114.595 87.8977C114.466 88.0842 114.281 88.2296 114.065 88.3154C113.849 88.4012 113.611 88.4237 113.382 88.3799C113.153 88.3362 112.942 88.2282 112.777 88.0696C112.611 87.911 112.499 87.7089 112.453 87.489C112.408 87.269 112.431 87.041 112.52 86.8338C112.61 86.6266 112.761 86.4495 112.956 86.3249C113.15 86.2003 113.379 86.1338 113.613 86.1338C113.926 86.1338 114.227 86.2533 114.448 86.4659C114.67 86.6786 114.795 86.967 114.795 87.2678Z" fill="white"/>
<path d="M115.675 90.358V90.8229C115.331 91.0259 114.956 91.177 114.564 91.2709C114.066 91.3909 113.547 91.4131 113.039 91.3361C112.531 91.2592 112.045 91.0846 111.609 90.8229V90.358C111.609 89.8437 111.822 89.3505 112.201 88.9869C112.58 88.6232 113.094 88.4189 113.63 88.4189C114.166 88.4189 114.681 88.6232 115.06 88.9869C115.439 89.3505 115.652 89.8437 115.652 90.358H115.675Z" fill="white"/>
<path d="M137.757 90.1255H132.674L134.748 87.6875L132.674 85.2495H137.757L139.832 87.6875L137.757 90.1255Z" fill="white"/>
<path d="M124.695 85.2495L125.522 86.8541L127.366 87.1092L126.03 88.3622L126.349 90.1255L124.695 89.2921L123.045 90.1255L123.359 88.3622L122.023 87.1092L123.867 86.8541L124.695 85.2495Z" fill="white"/>
<path d="M173.469 86.6958H143.479V88.6802H173.469V86.6958Z" fill="#DBDBDB"/>
<path d="M197.584 86.6958H185.828V88.6802H197.584V86.6958Z" fill="#C7C7C7"/>
<path d="M115.675 107.056C115.331 107.259 114.956 107.41 114.564 107.504C113.622 107.726 112.628 107.599 111.78 107.149C110.931 106.698 110.291 105.958 109.986 105.074C109.682 104.191 109.736 103.23 110.137 102.384C110.539 101.537 111.258 100.866 112.152 100.506C113.046 100.146 114.049 100.122 114.961 100.439C115.872 100.757 116.625 101.392 117.07 102.219C117.515 103.046 117.618 104.003 117.359 104.899C117.101 105.796 116.5 106.566 115.675 107.056Z" fill="#A6A6A6"/>
<path d="M114.795 103.501C114.795 103.725 114.725 103.944 114.595 104.131C114.466 104.317 114.281 104.462 114.065 104.548C113.849 104.634 113.611 104.657 113.382 104.613C113.153 104.569 112.942 104.461 112.777 104.302C112.611 104.144 112.499 103.942 112.453 103.722C112.408 103.502 112.431 103.274 112.52 103.067C112.61 102.86 112.761 102.682 112.956 102.558C113.15 102.433 113.379 102.367 113.613 102.367C113.926 102.367 114.227 102.486 114.448 102.699C114.67 102.911 114.795 103.2 114.795 103.501Z" fill="white"/>
<path d="M115.675 106.596V107.056C115.331 107.259 114.956 107.41 114.564 107.503C114.066 107.624 113.547 107.646 113.039 107.569C112.531 107.492 112.045 107.317 111.609 107.056V106.596C111.609 106.082 111.822 105.589 112.201 105.225C112.58 104.862 113.094 104.657 113.63 104.657C114.166 104.657 114.681 104.862 115.06 105.225C115.439 105.589 115.652 106.082 115.652 106.596H115.675Z" fill="white"/>
<path d="M137.757 106.358H132.674L134.748 103.92L132.674 101.482H137.757L139.832 103.92L137.757 106.358Z" fill="white"/>
<path d="M137.828 106.5H132.361L134.56 103.92L132.361 101.34H137.828L140.021 103.92L137.828 106.5ZM132.987 106.216H137.716L139.666 103.948L137.716 101.652H132.987L134.938 103.948L132.987 106.216Z" fill="#EBEBEB"/>
<path d="M124.695 101.482L125.522 103.087L127.366 103.348L126.03 104.595L126.349 106.358L124.695 105.525L123.045 106.358L123.359 104.595L122.023 103.348L123.867 103.087L124.695 101.482Z" fill="#FFC727"/>
<path d="M173.469 102.928H143.479V104.913H173.469V102.928Z" fill="#DBDBDB"/>
<path d="M197.584 102.928H185.828V104.913H197.584V102.928Z" fill="#C7C7C7"/>
<path d="M207.413 112.04H97.8313V128.272H207.413V112.04Z" fill="#EBEBEB"/>
<path d="M115.675 123.289C115.331 123.492 114.956 123.643 114.564 123.736C113.622 123.958 112.628 123.831 111.78 123.381C110.931 122.931 110.291 122.19 109.986 121.307C109.682 120.424 109.736 119.463 110.137 118.616C110.539 117.769 111.258 117.099 112.152 116.738C113.046 116.378 114.049 116.354 114.961 116.672C115.872 116.989 116.625 117.625 117.07 118.451C117.515 119.278 117.618 120.235 117.359 121.132C117.101 122.028 116.5 122.799 115.675 123.289Z" fill="#37474F"/>
<path d="M114.795 119.733C114.795 119.957 114.725 120.177 114.595 120.363C114.466 120.55 114.281 120.695 114.065 120.781C113.849 120.867 113.611 120.889 113.382 120.845C113.153 120.801 112.942 120.693 112.777 120.535C112.611 120.376 112.499 120.174 112.453 119.954C112.408 119.734 112.431 119.506 112.52 119.299C112.61 119.092 112.761 118.915 112.956 118.79C113.15 118.666 113.379 118.599 113.613 118.599C113.926 118.599 114.227 118.719 114.448 118.931C114.67 119.144 114.795 119.432 114.795 119.733Z" fill="white"/>
<path d="M115.675 122.812V123.271C115.331 123.474 114.956 123.625 114.564 123.719C114.066 123.839 113.547 123.862 113.039 123.785C112.531 123.708 112.045 123.533 111.609 123.271V122.812C111.609 122.298 111.822 121.805 112.201 121.441C112.58 121.077 113.094 120.873 113.63 120.873C114.166 120.873 114.681 121.077 115.06 121.441C115.439 121.805 115.652 122.298 115.652 122.812H115.675Z" fill="white"/>
<path d="M137.757 122.591H132.674L134.748 120.153L132.674 117.715H137.757L139.832 120.153L137.757 122.591Z" fill="white"/>
<path d="M124.695 117.715L125.522 119.32L127.366 119.581L126.03 120.828L126.349 122.591L124.695 121.758L123.045 122.591L123.359 120.828L122.023 119.581L123.867 119.32L124.695 117.715Z" fill="#FFC727"/>
<path d="M173.469 119.161H143.479V121.146H173.469V119.161Z" fill="#DBDBDB"/>
<path d="M197.584 119.161H185.828V121.146H197.584V119.161Z" fill="#C7C7C7"/>
<path d="M207.419 209.436V217.373C207.443 219.014 207.034 220.634 206.23 222.082C205.426 223.531 204.253 224.761 202.82 225.657H102.435C101.002 224.761 99.8288 223.531 99.0247 222.083C98.2206 220.634 97.812 219.014 97.837 217.373V209.436H207.419Z" fill="#EBEBEB"/>
<path d="M115.675 220.69C115.331 220.893 114.956 221.044 114.564 221.138C113.622 221.36 112.628 221.233 111.78 220.782C110.931 220.332 110.291 219.591 109.986 218.708C109.682 217.825 109.736 216.864 110.137 216.017C110.539 215.171 111.258 214.5 112.152 214.14C113.046 213.779 114.049 213.756 114.961 214.073C115.872 214.391 116.625 215.026 117.07 215.853C117.515 216.679 117.618 217.637 117.359 218.533C117.101 219.43 116.5 220.2 115.675 220.69Z" fill="#FFC727"/>
<path d="M114.795 217.135C114.795 217.36 114.725 217.579 114.595 217.765C114.466 217.952 114.281 218.097 114.065 218.183C113.849 218.269 113.611 218.291 113.382 218.248C113.153 218.204 112.942 218.096 112.777 217.937C112.611 217.779 112.499 217.577 112.453 217.357C112.408 217.137 112.431 216.909 112.52 216.701C112.61 216.494 112.761 216.317 112.956 216.193C113.15 216.068 113.379 216.001 113.613 216.001C113.926 216.001 114.227 216.121 114.448 216.334C114.67 216.546 114.795 216.835 114.795 217.135Z" fill="white"/>
<path d="M115.675 220.225V220.69C115.331 220.893 114.956 221.044 114.564 221.138C114.065 221.256 113.547 221.278 113.039 221.201C112.532 221.124 112.045 220.95 111.609 220.69V220.225C111.609 219.71 111.822 219.217 112.201 218.854C112.58 218.49 113.094 218.286 113.63 218.286C114.166 218.286 114.681 218.49 115.06 218.854C115.439 219.217 115.652 219.71 115.652 220.225H115.675Z" fill="white"/>
<path d="M137.757 219.993H132.674L134.748 217.555L132.674 215.117H137.757L139.832 217.555L137.757 219.993Z" fill="white"/>
<path d="M124.695 215.117L125.522 216.721L127.366 216.976L126.03 218.229L126.349 219.993L124.695 219.159L123.045 219.993L123.359 218.229L122.023 216.976L123.867 216.721L124.695 215.117Z" fill="#FFC727"/>
<path d="M173.469 216.562H143.479V218.547H173.469V216.562Z" fill="#DBDBDB"/>
<path d="M197.584 216.562H185.828V218.547H197.584V216.562Z" fill="#C7C7C7"/>
<path d="M115.675 139.521C115.159 139.827 114.574 140.011 113.969 140.058C113.364 140.105 112.756 140.015 112.195 139.793C111.634 139.572 111.135 139.227 110.739 138.785C110.343 138.344 110.062 137.819 109.918 137.253C109.75 136.592 109.776 135.899 109.993 135.25C110.21 134.602 110.61 134.024 111.148 133.58C111.686 133.136 112.342 132.844 113.043 132.735C113.743 132.627 114.462 132.706 115.118 132.965C115.775 133.223 116.344 133.651 116.763 134.201C117.182 134.751 117.434 135.401 117.492 136.079C117.549 136.758 117.41 137.439 117.09 138.046C116.769 138.654 116.28 139.164 115.675 139.521Z" fill="#263238"/>
<path d="M114.795 135.966C114.795 136.19 114.725 136.409 114.595 136.596C114.466 136.782 114.281 136.928 114.065 137.014C113.849 137.099 113.611 137.122 113.382 137.078C113.153 137.034 112.942 136.926 112.777 136.768C112.611 136.609 112.499 136.407 112.453 136.187C112.408 135.967 112.431 135.739 112.52 135.532C112.61 135.325 112.761 135.148 112.956 135.023C113.15 134.899 113.379 134.832 113.613 134.832C113.926 134.832 114.227 134.952 114.448 135.164C114.67 135.377 114.795 135.665 114.795 135.966Z" fill="white"/>
<path d="M115.675 139.062V139.521C115.068 139.883 114.368 140.074 113.654 140.074C112.939 140.074 112.239 139.883 111.632 139.521V139.062C111.632 138.547 111.845 138.054 112.224 137.691C112.603 137.327 113.118 137.123 113.654 137.123C114.19 137.123 114.704 137.327 115.083 137.691C115.462 138.054 115.675 138.547 115.675 139.062Z" fill="white"/>
<path d="M137.757 138.824H132.674L134.748 136.386L132.674 133.948H137.757L139.832 136.386L137.757 138.824Z" fill="white"/>
<path d="M137.828 138.965H132.361L134.56 136.385L132.361 133.806H137.828L140.021 136.385L137.828 138.965ZM132.987 138.682H137.716L139.666 136.385L137.716 134.089H132.987L134.938 136.385L132.987 138.682Z" fill="#EBEBEB"/>
<path d="M124.695 133.948L125.522 135.552L127.366 135.813L126.03 137.06L126.349 138.824L124.695 137.99L123.045 138.824L123.359 137.06L122.023 135.813L123.867 135.552L124.695 133.948Z" fill="white"/>
<path d="M126.545 139.085L124.695 138.155L122.845 139.085L123.199 137.112L121.704 135.711L123.773 135.428L124.695 133.63L125.617 135.428L127.685 135.711L126.19 137.112L126.545 139.085ZM124.695 137.832L126.149 138.569L125.871 137.01L127.053 135.91L125.422 135.683L124.695 134.271L123.95 135.683L122.324 135.91L123.507 137.01L123.229 138.569L124.695 137.832Z" fill="#EBEBEB"/>
<path d="M173.469 135.394H143.479V137.378H173.469V135.394Z" fill="#DBDBDB"/>
<path d="M197.584 135.394H185.828V137.378H197.584V135.394Z" fill="#C7C7C7"/>
<path d="M207.413 144.505H97.8313V160.738H207.413V144.505Z" fill="#EBEBEB"/>
<path d="M115.675 155.759C115.331 155.961 114.956 156.11 114.564 156.202C113.826 156.374 113.051 156.332 112.338 156.082C111.625 155.831 111.005 155.384 110.556 154.796C110.108 154.207 109.851 153.505 109.819 152.777C109.787 152.049 109.98 151.328 110.375 150.706C110.77 150.083 111.348 149.587 112.037 149.279C112.725 148.972 113.494 148.867 114.244 148.978C114.995 149.09 115.694 149.412 116.254 149.904C116.814 150.397 117.209 151.037 117.389 151.745C117.581 152.502 117.519 153.298 117.211 154.019C116.903 154.74 116.366 155.349 115.675 155.759Z" fill="#FFC727"/>
<path d="M114.795 152.198C114.795 152.423 114.725 152.642 114.595 152.828C114.466 153.015 114.281 153.16 114.065 153.246C113.849 153.332 113.611 153.354 113.382 153.311C113.153 153.267 112.942 153.159 112.777 153C112.611 152.842 112.499 152.64 112.453 152.42C112.408 152.2 112.431 151.972 112.52 151.764C112.61 151.557 112.761 151.38 112.956 151.256C113.15 151.131 113.379 151.064 113.613 151.064C113.926 151.064 114.227 151.184 114.448 151.397C114.67 151.609 114.795 151.898 114.795 152.198Z" fill="white"/>
<path d="M115.675 155.295V155.759C115.331 155.961 114.956 156.11 114.564 156.202C114.066 156.322 113.547 156.344 113.039 156.267C112.531 156.19 112.045 156.015 111.609 155.754V155.295C111.609 154.78 111.822 154.287 112.201 153.923C112.58 153.56 113.094 153.355 113.63 153.355C114.166 153.355 114.681 153.56 115.06 153.923C115.439 154.287 115.652 154.78 115.652 155.295H115.675Z" fill="white"/>
<path d="M137.757 155.062H132.674L134.748 152.619L132.674 150.181H137.757L139.832 152.619L137.757 155.062Z" fill="white"/>
<path d="M124.695 150.181L125.522 151.791L127.366 152.046L126.03 153.293L126.349 155.062L124.695 154.229L123.045 155.062L123.359 153.293L122.023 152.046L123.867 151.791L124.695 150.181Z" fill="#FFC727"/>
<path d="M173.469 151.632H143.479V153.616H173.469V151.632Z" fill="#263238"/>
<path d="M197.584 151.632H185.828V153.616H197.584V151.632Z" fill="#455A64"/>
<path d="M115.675 171.992C115.332 172.196 114.957 172.345 114.564 172.435C113.826 172.607 113.051 172.565 112.338 172.315C111.625 172.064 111.005 171.617 110.556 171.029C110.108 170.44 109.851 169.738 109.819 169.01C109.787 168.282 109.98 167.561 110.375 166.938C110.77 166.316 111.348 165.819 112.037 165.512C112.725 165.205 113.494 165.1 114.244 165.211C114.995 165.322 115.694 165.645 116.254 166.137C116.814 166.63 117.209 167.27 117.389 167.978C117.581 168.735 117.519 169.531 117.211 170.252C116.903 170.973 116.366 171.582 115.675 171.992Z" fill="#FFC727"/>
<path d="M114.795 168.432C114.795 168.656 114.725 168.875 114.595 169.062C114.466 169.248 114.281 169.394 114.065 169.479C113.849 169.565 113.611 169.588 113.382 169.544C113.153 169.5 112.942 169.392 112.777 169.234C112.611 169.075 112.499 168.873 112.453 168.653C112.408 168.433 112.431 168.205 112.52 167.998C112.61 167.791 112.761 167.614 112.956 167.489C113.15 167.364 113.379 167.298 113.613 167.298C113.926 167.298 114.227 167.417 114.448 167.63C114.67 167.843 114.795 168.131 114.795 168.432Z" fill="white"/>
<path d="M115.675 171.527V171.992C115.332 172.195 114.957 172.345 114.564 172.434C114.066 172.554 113.547 172.576 113.039 172.499C112.531 172.422 112.045 172.248 111.609 171.986V171.527C111.609 171.013 111.822 170.519 112.201 170.156C112.58 169.792 113.094 169.588 113.63 169.588C114.166 169.588 114.681 169.792 115.06 170.156C115.439 170.519 115.652 171.013 115.652 171.527H115.675Z" fill="white"/>
<path d="M137.757 171.295H132.674L134.748 168.857L132.674 166.419H137.757L139.832 168.857L137.757 171.295Z" fill="white"/>
<path d="M137.828 171.437H132.361L134.56 168.857L132.361 166.277H137.828L140.021 168.857L137.828 171.437ZM132.987 171.153H137.716L139.666 168.857L137.716 166.589H132.987L134.938 168.857L132.987 171.153Z" fill="#EBEBEB"/>
<path d="M124.695 166.419L125.522 168.023L127.366 168.279L126.03 169.526L126.349 171.295L124.695 170.462L123.045 171.295L123.359 169.526L122.023 168.279L123.867 168.023L124.695 166.419Z" fill="white"/>
<path d="M126.545 171.572L124.695 170.642L122.845 171.572L123.199 169.599L121.704 168.17L123.773 167.881L124.695 166.084L125.617 167.881L127.685 168.17L126.19 169.565L126.545 171.572ZM122.342 168.403L123.524 169.503L123.247 171.056L124.701 170.319L126.155 171.056L125.877 169.503L127.059 168.403L125.428 168.17L124.701 166.759L123.95 168.17L122.342 168.403Z" fill="#EBEBEB"/>
<path d="M173.469 167.865H143.479V169.849H173.469V167.865Z" fill="#DBDBDB"/>
<path d="M197.584 167.865H185.828V169.849H197.584V167.865Z" fill="#C7C7C7"/>
<path d="M207.413 176.97H97.8313V193.203H207.413V176.97Z" fill="#EBEBEB"/>
<path d="M115.675 188.224C115.332 188.428 114.956 188.577 114.564 188.667C113.627 188.882 112.64 188.751 111.799 188.3C110.958 187.848 110.326 187.109 110.028 186.23C109.73 185.351 109.788 184.397 110.191 183.557C110.594 182.718 111.312 182.055 112.202 181.7C113.092 181.346 114.089 181.327 114.993 181.646C115.897 181.965 116.643 182.6 117.081 183.423C117.519 184.246 117.618 185.198 117.357 186.088C117.097 186.977 116.496 187.74 115.675 188.224Z" fill="#455A64"/>
<path d="M114.795 184.664C114.795 184.888 114.725 185.107 114.595 185.294C114.466 185.48 114.281 185.626 114.065 185.711C113.849 185.797 113.611 185.82 113.382 185.776C113.153 185.732 112.942 185.624 112.777 185.466C112.611 185.307 112.499 185.105 112.453 184.885C112.408 184.665 112.431 184.437 112.52 184.23C112.61 184.023 112.761 183.845 112.956 183.721C113.15 183.596 113.379 183.53 113.613 183.53C113.926 183.53 114.227 183.649 114.448 183.862C114.67 184.075 114.795 184.363 114.795 184.664Z" fill="white"/>
<path d="M115.675 187.76V188.225C115.332 188.429 114.957 188.578 114.564 188.668C114.066 188.787 113.547 188.81 113.04 188.734C112.532 188.658 112.046 188.485 111.609 188.225V187.76C111.609 187.246 111.822 186.753 112.201 186.389C112.58 186.026 113.094 185.821 113.63 185.821C114.166 185.821 114.681 186.026 115.06 186.389C115.439 186.753 115.652 187.246 115.652 187.76H115.675Z" fill="white"/>
<path d="M137.757 187.527H132.674L134.748 185.089L132.674 182.651H137.757L139.832 185.089L137.757 187.527Z" fill="white"/>
<path d="M124.695 182.651L125.522 184.256L127.366 184.511L126.03 185.758L126.349 187.527L124.695 186.694L123.045 187.527L123.359 185.758L122.023 184.511L123.867 184.256L124.695 182.651Z" fill="white"/>
<path d="M173.469 184.097H143.479V186.082H173.469V184.097Z" fill="#DBDBDB"/>
<path d="M197.584 184.097H185.828V186.082H197.584V184.097Z" fill="#C7C7C7"/>
<path d="M115.675 204.457C115.332 204.661 114.956 204.81 114.564 204.899C113.627 205.115 112.64 204.984 111.799 204.533C110.958 204.081 110.326 203.342 110.028 202.463C109.73 201.584 109.788 200.63 110.191 199.79C110.594 198.951 111.312 198.288 112.202 197.933C113.092 197.579 114.089 197.56 114.993 197.879C115.897 198.198 116.643 198.833 117.081 199.656C117.519 200.479 117.618 201.431 117.357 202.32C117.097 203.21 116.496 203.973 115.675 204.457Z" fill="#A6A6A6"/>
<path d="M114.795 200.903C114.795 201.127 114.725 201.346 114.595 201.532C114.466 201.719 114.281 201.864 114.065 201.95C113.849 202.036 113.611 202.058 113.382 202.015C113.153 201.971 112.942 201.863 112.777 201.704C112.611 201.546 112.499 201.344 112.453 201.124C112.408 200.904 112.431 200.676 112.52 200.469C112.61 200.261 112.761 200.084 112.956 199.96C113.15 199.835 113.379 199.769 113.613 199.769C113.926 199.769 114.227 199.888 114.448 200.101C114.67 200.313 114.795 200.602 114.795 200.903Z" fill="white"/>
<path d="M115.675 203.993V204.458C115.332 204.661 114.957 204.811 114.564 204.9C114.066 205.021 113.547 205.044 113.039 204.968C112.532 204.892 112.045 204.719 111.609 204.458V203.993C111.609 203.479 111.822 202.985 112.201 202.622C112.58 202.258 113.094 202.054 113.63 202.054C114.166 202.054 114.681 202.258 115.06 202.622C115.439 202.985 115.652 203.479 115.652 203.993H115.675Z" fill="white"/>
<path d="M137.757 203.76H132.674L134.748 201.322L132.674 198.884H137.757L139.832 201.322L137.757 203.76Z" fill="white"/>
<path d="M137.828 203.89H132.361L134.56 201.311L132.361 198.731H137.828L140.021 201.311L137.828 203.89ZM132.987 203.607H137.716L139.666 201.339L137.716 199.043H132.987L134.938 201.339L132.987 203.607Z" fill="#EBEBEB"/>
<path d="M124.695 198.884L125.522 200.488L127.366 200.743L126.03 201.997L126.349 203.76L124.695 202.926L123.045 203.76L123.359 201.997L122.023 200.743L123.867 200.488L124.695 198.884Z" fill="white"/>
<path d="M126.545 204.021L124.695 203.086L122.845 204.021L123.199 202.042L121.704 200.648L123.773 200.358L124.695 198.561L125.617 200.358L127.685 200.648L126.19 202.042L126.545 204.021ZM124.695 202.757L126.149 203.488L125.871 201.935L127.053 200.835L125.422 200.608L124.695 199.19L123.968 200.608L122.342 200.835L123.524 201.935L123.247 203.488L124.695 202.757Z" fill="#EBEBEB"/>
<path d="M173.469 200.33H143.479V202.314H173.469V200.33Z" fill="#DBDBDB"/>
<path d="M197.584 200.33H185.828V202.314H197.584V200.33Z" fill="#C7C7C7"/>
<path d="M114.925 233.782H66.9432C61.204 214.47 56.5879 199.763 56.5879 199.763H102.081C102.081 199.763 107.702 214.328 114.925 233.782Z" fill="#37474F"/>
<path d="M73.9704 233.781H72.9833C70.1404 224.681 67.1851 215.638 64.2889 206.526C64.2475 206.407 64.4426 206.351 64.4899 206.47C65.0809 208.046 65.672 209.622 66.263 211.204C69.0292 218.665 71.5648 226.206 73.9704 233.781Z" fill="#263238"/>
<path d="M101.041 199.78C100.987 200.693 98.4518 209.044 97.1397 221.541C96.6609 226.15 96.1171 230.487 95.5379 233.782H31.8635C25.5629 215.105 34.9134 199.763 34.9134 199.763C34.9134 199.763 101.047 199.74 101.041 199.78Z" fill="#37474F"/>
<path d="M88.3157 220.463C88.5403 223.599 88.6171 226.74 88.5758 229.875C88.4721 231.175 88.4603 232.48 88.5403 233.782H87.435C87.169 231.791 87.435 229.314 87.435 227.358C87.3996 219.255 86.3238 211.244 85.0235 203.25C85.0224 203.214 85.0344 203.179 85.0575 203.15C85.0806 203.122 85.1134 203.103 85.15 203.095C85.1866 203.088 85.2248 203.093 85.2579 203.11C85.2909 203.127 85.3168 203.154 85.3309 203.187C86.9414 208.832 87.9416 214.622 88.3157 220.463Z" fill="#263238"/>
<path d="M96.2118 224.511C96.1526 226.178 95.6798 230.618 94.3145 233.782H93.3629C95.2129 229.455 95.1065 221.013 94.9705 219.04C94.5863 213.257 94.1194 207.825 93.0969 201.736C93.0614 201.543 93.3924 201.532 93.4338 201.707C95.2365 209.056 96.46 216.971 96.2118 224.511Z" fill="#263238"/>
<path d="M35.7946 207.888C33.9505 215.536 34.8489 223.763 36.6103 231.332C36.7935 232.154 37.0004 232.971 37.2013 233.782H36.2438C33.6373 223.23 32.8393 212.31 37.4259 202.076C37.485 201.951 37.6801 202.076 37.6269 202.184C36.866 204.038 36.2534 205.944 35.7946 207.888Z" fill="#263238"/>
<path d="M141.505 88.2265L131.043 120.17C130.623 121.1 131.078 121.905 132.048 121.956L149.472 122.909C150.006 122.901 150.526 122.748 150.972 122.466C151.418 122.185 151.771 121.788 151.99 121.321L162.428 89.4001C162.848 88.4646 162.392 87.6652 161.423 87.6141L144.046 86.6616C143.511 86.663 142.988 86.8111 142.537 87.0883C142.087 87.3656 141.729 87.7604 141.505 88.2265Z" fill="#37474F"/>
<path d="M143.574 88.3452L133.136 120.266C132.716 121.196 133.171 121.995 134.146 122.052L151.565 123.005C152.099 122.996 152.619 122.842 153.066 122.561C153.513 122.28 153.867 121.884 154.088 121.417L164.521 89.4905C164.94 88.5606 164.491 87.7895 163.516 87.7102L146.091 86.752C145.558 86.7622 145.038 86.9173 144.592 87.1993C144.147 87.4812 143.793 87.8785 143.574 88.3452Z" fill="#455A64"/>
<path d="M148.26 90.0858C148.237 90.3664 148.128 90.6342 147.946 90.8552C147.764 91.0762 147.518 91.2405 147.239 91.3273C146.959 91.414 146.66 91.4194 146.377 91.3427C146.095 91.266 145.842 91.1106 145.652 90.8963C145.462 90.6819 145.342 90.4182 145.308 90.1386C145.274 89.8589 145.327 89.5758 145.461 89.3252C145.594 89.0745 145.803 88.8675 146.059 88.7304C146.315 88.5933 146.608 88.5322 146.901 88.5549C147.293 88.5853 147.656 88.7635 147.911 89.0506C148.166 89.3376 148.291 89.7099 148.26 90.0858Z" fill="#263238"/>
<path d="M82.4169 134.214C90.8867 154.971 111.213 182.515 120.363 183.207C124.713 183.541 132.42 185.033 138.467 180.593C151.659 170.909 163.462 151.53 166.376 140.196C167.416 136.165 147.332 126.021 144.046 129.145C136.362 136.471 126.994 151.207 125.723 151.036C121.066 150.401 103.748 134.594 91.6728 123.487C77.0146 109.993 79.0301 125.942 82.4169 134.214Z" fill="#EB9481"/>
<path d="M168.338 119.149C166.719 110.724 164.957 108.802 167.523 101.006C169.207 95.9029 166.524 92.6541 162.392 96.5889C155.631 103.019 155.341 114.307 156.417 118.248L168.338 119.149Z" fill="#EB9481"/>
<path d="M165.123 143.688C165.123 143.688 169.769 132.388 168.971 123.277C168.415 116.96 165.613 103.341 147.84 95.1203C143.626 93.1699 136.179 93.2606 141.859 98.8453C145.89 102.814 149.702 104.158 151.611 106.874C151.611 106.874 142.154 108.064 140.275 112.192C138.642 115.801 137.278 119.517 136.191 123.311C136.869 123.661 137.57 123.97 138.289 124.235C138.289 124.235 136.664 128.153 139.365 134.026L165.123 143.688Z" fill="#EB9481"/>
<path d="M167.44 117.301C164.952 114.987 159.591 110.174 153.775 107.696C147.32 104.946 134.104 101.318 132.036 105.91C130.523 109.278 135.44 111.092 135.44 111.092C135.44 111.092 129.648 110.695 128.974 114.024C128.383 117.057 132.248 118.242 132.248 118.242C132.248 118.242 128.702 118.582 128.702 121.615C128.702 125.261 136.144 123.951 139.465 127.654C140.198 128.482 167.44 117.301 167.44 117.301Z" fill="#EB9481"/>
<path d="M151.883 114.727C149.17 112.918 141.912 110.333 135.558 111.008C135.411 111.008 135.346 111.132 135.482 111.144C141.074 111.718 146.574 112.94 151.86 114.784C151.895 114.801 151.913 114.744 151.883 114.727Z" fill="#263238"/>
<path d="M148.775 120.901C146.269 119.569 138.668 117.227 132.225 118.117C132.083 118.117 132.024 118.253 132.16 118.265C137.765 118.559 143.317 119.462 148.71 120.958C148.718 120.966 148.729 120.971 148.74 120.972C148.752 120.972 148.763 120.968 148.772 120.961C148.78 120.953 148.786 120.943 148.786 120.931C148.787 120.92 148.783 120.909 148.775 120.901Z" fill="#263238"/>
<path d="M108.855 135.904L105.628 139.663L104.96 140.445L92.0333 155.425C92.0333 155.425 80.3363 137.1 77.9721 126.679C76.5595 120.442 77.5761 116.728 80.4191 116.054C80.6308 116.006 80.8463 115.976 81.0633 115.963C82.9015 115.81 85.3721 116.74 88.3274 118.832C96.6494 124.728 108.855 135.904 108.855 135.904Z" fill="#FFC727"/>
<path d="M108.133 135.285C107.835 136.225 107.47 137.144 107.04 138.035L108.813 135.994C108.817 135.97 108.817 135.945 108.813 135.92C108.76 135.818 108.517 135.597 108.133 135.285ZM88.2798 118.843C87.1311 119.543 86.0786 120.38 85.1472 121.332C82.3158 124.174 80.7327 127.952 80.7261 131.883C80.7348 132.939 80.8058 133.993 80.9389 135.041C81.2304 135.688 81.526 136.334 81.8254 136.981C81.7722 136.561 81.7131 136.147 81.654 135.722C81.242 133.458 81.21 131.146 81.5595 128.873C81.9329 127.08 82.6439 125.368 83.6577 123.821C84.9069 121.887 86.5712 120.231 88.5398 118.962C88.463 118.917 88.398 118.865 88.327 118.814L88.2798 118.843Z" fill="white"/>
<path d="M89.5211 149.194C90.2185 147.617 97.3998 138.155 103.381 132.145C103.399 132.125 103.425 132.113 103.452 132.112C103.479 132.11 103.506 132.119 103.526 132.136C103.546 132.153 103.559 132.178 103.561 132.204C103.562 132.23 103.553 132.255 103.535 132.275C102.944 133.012 91.1228 148.213 89.7279 149.364C89.6156 149.46 89.4738 149.307 89.5211 149.194Z" fill="#263238"/>
<path opacity="0.05" d="M100.308 145.848L92.0332 155.419C92.0332 155.419 80.3362 137.1 77.972 126.679C76.3407 119.489 77.9306 115.668 81.8138 115.957L100.308 145.848Z" fill="black"/>
<path d="M102.672 202.297C101.017 203.998 31.042 211.17 30.64 210.705C29.5702 209.452 36.0068 141.613 64.673 116.762C69.7265 112.385 78.6514 113.633 82.7888 115.883C84.8516 117.017 88.4452 126.384 91.962 137.332C94.6217 145.695 103.689 201.197 102.672 202.297Z" fill="#FFC727"/>
<path d="M102.672 202.297C102.306 202.677 98.5346 203.335 92.9018 204.117L92.2635 204.202C89.4146 204.593 86.1283 205.013 82.582 205.438L81.8137 205.535C71.6889 206.754 59.6136 208.058 49.7312 209.055L49.412 209.084C38.773 210.161 30.7761 210.864 30.6401 210.705C30.5042 210.547 30.5042 207.717 30.9711 203.261C30.9711 203.074 31.0125 202.875 31.0302 202.694C32.1473 192.392 35.2444 173.676 41.5451 155.572C41.6456 155.277 41.7519 155.005 41.8524 154.693C43.7378 149.296 45.9622 144.014 48.5136 138.875C48.5905 138.722 48.6614 138.574 48.7441 138.421C51.2417 133.379 54.2509 128.586 57.7282 124.11C57.8464 123.963 57.9587 123.821 58.0828 123.685C60.059 121.196 62.2647 118.883 64.6731 116.774C65.3484 116.196 66.0971 115.703 66.9013 115.305C67.0846 115.215 67.2737 115.129 67.4628 115.05C69.9831 114.035 72.7292 113.645 75.448 113.916L76.1218 113.984C78.4525 114.203 80.7168 114.854 82.7889 115.901C83.5986 116.348 84.6507 118.061 85.8387 120.663C85.8978 120.777 85.951 120.901 86.0042 121.026C87.7774 124.995 89.8993 130.914 91.9621 137.349C92.6891 139.617 93.9007 145.401 95.2424 152.613L95.3311 153.1C95.798 155.589 96.2768 158.254 96.7555 160.998C96.8264 161.389 96.8974 161.775 96.9624 162.166C97.9376 167.768 98.9129 173.653 99.7817 179.142C99.8113 179.363 99.8467 179.589 99.8881 179.805C100.621 184.5 101.271 188.877 101.774 192.5C101.809 192.789 101.844 193.067 101.886 193.35C102.554 198.555 102.897 202.031 102.672 202.297Z" fill="#FFC727"/>
<path d="M79.9047 195.72C78.7122 194.121 77.1942 192.771 75.4422 191.751C73.5605 190.702 71.4854 190.011 69.3307 189.716C67.0729 189.341 64.7028 189.149 62.5868 188.207C60.5654 187.329 59.1468 185.758 57.7342 184.176C57.3619 183.762 56.9777 183.348 56.5876 182.952C57.0309 182.662 57.4801 182.385 57.9411 182.095C60.5949 180.531 63.5266 179.351 65.9794 177.491C68.1994 175.841 69.7536 173.502 70.3769 170.875C70.973 168.286 70.7676 165.586 69.7858 163.107C68.7434 160.606 67.0257 158.416 64.8092 156.763C62.5367 155.093 59.9384 153.878 57.168 153.189C54.3975 152.499 51.5111 152.35 48.6793 152.748C46.3099 153.052 44.0022 153.698 41.8348 154.665C41.7344 154.96 41.628 155.232 41.5275 155.544C42.5781 155.036 43.6691 154.61 44.7901 154.268C50.1976 152.564 56.086 152.961 61.1919 155.374C63.6544 156.548 65.7853 158.275 67.4039 160.408C68.9612 162.518 69.8387 165.02 69.9277 167.603C70.0508 170.157 69.288 172.677 67.7585 174.77C65.9853 177.078 63.2842 178.472 60.7191 179.805C59.135 180.633 57.5983 181.506 56.1029 182.475C55.2383 181.615 54.2007 180.932 53.0531 180.468C51.1464 179.801 49.0574 179.789 47.1425 180.434C42.9756 181.778 40.4991 185.65 40.0203 189.716C39.7868 191.983 40.0609 194.271 40.8241 196.429C39.0871 198.136 37.1446 199.64 35.0377 200.908C33.7728 201.658 32.4145 202.252 30.9949 202.677C30.9949 202.87 30.9535 203.068 30.9358 203.244C31.1899 203.176 31.4441 203.102 31.6923 203.017C35.3155 201.843 38.3299 199.587 41.0547 197.052C41.8133 199.02 42.8049 200.898 44.0099 202.648C45.5701 204.958 47.3723 207.109 49.3885 209.067L49.7077 209.038C48.5421 207.858 47.4507 206.612 46.4392 205.308C44.3203 202.699 42.6392 199.79 41.4566 196.684C42.4673 195.72 43.4425 194.716 44.4118 193.724C46.2796 191.774 48.1178 189.755 50.1096 187.935C51.9666 186.223 53.9694 184.662 56.097 183.269C57.3678 184.567 58.4612 186.036 59.8443 187.238C61.4761 188.538 63.438 189.401 65.5302 189.738C67.6994 190.175 69.9336 190.351 72.0673 190.98C73.9671 191.555 75.7123 192.523 77.1799 193.815C78.6593 195.078 79.8448 196.626 80.6595 198.358C81.4741 200.09 81.8997 201.967 81.9084 203.867C81.9045 204.427 81.859 204.986 81.7724 205.54L82.5408 205.444C82.9658 202 82.0248 198.529 79.9047 195.72ZM52.8403 184.772C50.6 186.542 48.4999 188.469 46.5574 190.538C44.7842 192.363 43.0761 194.274 41.2379 196.06C40.9139 195.052 40.6883 194.018 40.5641 192.97C40.1031 189.001 41.362 184.465 44.9202 182.095C46.5455 180.998 48.5015 180.442 50.4879 180.513C52.4346 180.643 54.2605 181.466 55.6064 182.821C54.6666 183.439 53.7387 184.08 52.8403 184.772ZM99.7523 179.102C97.7073 180.672 95.7627 182.385 93.4753 183.638C90.1831 185.441 85.6557 186.399 82.659 183.536C81.4106 182.373 80.6584 180.806 80.5492 179.14C80.4399 177.475 80.9813 175.83 82.068 174.526C83.2501 172.939 84.71 171.606 85.8566 169.99C86.7967 168.639 87.6172 167.215 88.3095 165.732C89.7778 166.155 91.3506 166.101 92.7838 165.579C94.5325 164.905 95.9911 163.682 96.9212 162.109C96.8561 161.718 96.7852 161.333 96.7143 160.941C96.2508 161.812 95.6531 162.611 94.9411 163.311C94.2842 163.982 93.4796 164.503 92.5859 164.838C91.6923 165.172 90.7321 165.311 89.7753 165.245C89.3883 165.207 89.005 165.141 88.6287 165.046C88.7173 164.87 88.8001 164.689 88.8828 164.479C90.5437 160.839 91.9327 156.989 94.5451 153.837C94.777 153.553 95.0236 153.281 95.2839 153.021L95.1953 152.533C92.7365 154.982 91.1525 158.169 89.7517 161.247C89.202 162.455 88.6641 163.668 88.079 164.87C86.7669 164.422 85.5784 163.693 84.6036 162.739C81.3941 159.603 81.1518 154.761 81.4828 150.634C81.6956 148.116 82.0739 145.61 82.2039 143.093C82.2318 140.607 82.034 138.124 81.6128 135.671C81.2008 133.407 81.1689 131.095 81.5183 128.822C81.8917 127.03 82.6027 125.318 83.6165 123.77C84.2701 122.741 85.0478 121.79 85.9334 120.935C85.8803 120.81 85.8271 120.686 85.768 120.572C85.5434 120.776 85.3247 120.986 85.106 121.207C82.2585 124.087 80.6882 127.915 80.7263 131.884C80.7263 134.469 81.2641 137.015 81.471 139.589C81.6118 142.241 81.4791 144.9 81.075 147.527C80.5253 152.113 80.0347 157.165 82.529 161.338C83.7063 163.301 85.5603 164.809 87.7716 165.602C87.4938 166.169 87.2101 166.736 86.9028 167.257C86.3593 168.226 85.7512 169.16 85.0823 170.053C84.4499 170.881 83.7406 171.652 83.0432 172.428C81.7606 173.863 80.4544 175.428 80.0879 177.321C79.7733 178.948 80.0355 180.629 80.8326 182.095C81.6023 183.583 82.8934 184.763 84.4795 185.429C86.3995 186.139 88.516 186.193 90.4728 185.582C94.1728 184.545 96.9744 182.044 99.8883 179.788C99.8173 179.572 99.7819 179.346 99.7523 179.124V179.102ZM101.856 193.31C99.9946 191.893 98.0087 190.475 95.5736 190.288C94.3831 190.157 93.1832 190.441 92.1927 191.088C91.2872 191.744 90.6127 192.65 90.26 193.684C89.4535 195.964 89.5481 198.447 90.5259 200.664C91.0901 201.951 91.8909 203.13 92.8902 204.145L92.2518 204.23C91.5882 203.541 91.011 202.78 90.5319 201.962C89.8533 200.796 89.4026 199.52 89.202 198.198C88.8355 195.901 89.202 193.316 90.7742 191.473C92.4823 189.477 95.2662 189.273 97.66 190.112C99.1513 190.691 100.536 191.495 101.762 192.494C101.78 192.772 101.815 193.055 101.856 193.333V193.31ZM75.4836 114.84C75.6964 114.557 75.8914 114.273 76.0747 113.967L75.4009 113.899C74.0293 115.918 72.3991 117.764 70.5483 119.393L70.1818 119.727C69.8093 118.474 69.2242 117.289 68.4501 116.218C68.1379 115.799 67.7921 115.405 67.4157 115.039C67.2266 115.118 67.0374 115.203 66.8542 115.294C68.0929 116.502 69.0111 117.978 69.5317 119.597C69.5908 119.784 69.644 119.971 69.6972 120.164C68.0961 121.686 66.222 122.919 64.1649 123.804C62.2262 124.558 59.862 124.711 58.0357 123.679C57.9115 123.815 57.7992 123.957 57.681 124.105C59.1926 124.937 60.9722 125.201 62.6754 124.847C65.3884 124.354 67.7053 122.636 69.7326 120.929L69.8686 120.816C70.7197 124.32 70.4005 128.017 70.9739 131.589C71.6299 135.654 73.6632 139.765 72.617 143.926C72.2729 145.558 71.347 147.023 69.9986 148.071C69.1867 148.603 68.2529 148.94 67.2765 149.052C66.3001 149.165 65.3098 149.05 64.3895 148.717C60.2048 147.43 57.7638 143.614 54.3002 141.267C52.5245 140.163 50.6493 139.215 48.697 138.432C48.6142 138.585 48.5433 138.733 48.4665 138.886C49.6486 139.424 50.8307 139.929 51.9064 140.502C52.7528 140.93 53.563 141.421 54.3297 141.97C55.2259 142.646 56.0786 143.373 56.8831 144.147C58.4849 145.644 60.0571 147.237 62.0075 148.332C63.7807 149.324 65.9026 149.953 67.9595 149.573C68.8418 149.386 69.6726 149.022 70.397 148.504C71.1215 147.986 71.723 147.326 72.1619 146.568C73.0622 145.036 73.527 143.304 73.5095 141.545C73.5095 139.277 72.8652 137.009 72.2919 134.815C71.9682 133.648 71.7097 132.465 71.5176 131.271C71.3639 130.217 71.2753 129.162 71.2103 128.102C71.1443 126.002 70.9628 123.907 70.6665 121.825C70.5838 121.343 70.4833 120.867 70.3651 120.391C72.2818 118.73 73.9987 116.868 75.4836 114.84Z" fill="white"/>
<path d="M57.8644 126.214C46.3447 149.216 30.9241 206.379 28.6604 214.782C27.1177 220.486 58.1658 226.263 58.9874 222.3C59.9331 217.764 71.8074 150.86 70.6253 126.764C69.981 113.576 61.8481 118.276 57.8644 126.214Z" fill="#EB9481"/>
<path d="M59.3714 219.663C59.005 223.995 56.4161 232.806 54.2411 234.24C52.066 235.675 40.1326 235.992 34.1452 236.298C28.1578 236.605 26.8693 235.074 26.8575 233.072C26.8457 231.071 39.4292 230.073 39.4292 230.073C39.4292 230.073 22.8797 235.544 18.6891 236.508C14.4985 237.472 4.89388 240.324 3.32167 237.035C2.56512 235.55 5.14803 233.883 5.14803 233.883C5.14803 233.883 1.12295 235.232 0.366398 233.316C-0.496542 231.133 2.68924 229.75 2.68924 229.75C2.68924 229.75 0.159528 230.373 0.0058541 228.565C-0.348779 224.534 15.527 221.761 15.527 221.761C15.527 221.761 3.59947 228.094 3.02615 224.817C2.23413 220.281 27.0407 214.01 29.5409 211.89C31.3581 210.275 33.0436 208.53 34.5826 206.668L59.3714 219.663Z" fill="#EB9481"/>
<path d="M27.0169 234.07C26.9597 233.791 26.9739 233.502 27.0583 233.228C27.1427 232.955 27.2948 232.705 27.5015 232.5C27.912 232.1 28.3895 231.768 28.9142 231.519C29.9969 231.006 31.1267 230.591 32.2891 230.277C34.6238 229.58 37.0175 229.053 39.3817 228.333C36.8847 228.42 34.4096 228.815 32.0172 229.506C30.7962 229.839 29.6302 230.335 28.5536 230.98C27.9969 231.311 27.5178 231.75 27.1469 232.267C26.9656 232.532 26.8584 232.837 26.8356 233.153C26.8129 233.468 26.8753 233.784 27.0169 234.07Z" fill="#263238"/>
<path d="M5.14819 233.883C6.85634 233.39 8.53494 232.834 10.2076 232.279C11.8803 231.723 13.5471 231.145 15.2139 230.578L20.1965 228.797C21.8573 228.23 23.5123 227.618 25.1909 227.045C23.4322 227.322 21.6946 227.71 19.9896 228.208C18.2755 228.673 16.5969 229.24 14.9242 229.818C13.2516 230.396 11.6025 231.031 9.97711 231.717C8.35171 232.403 6.72631 233.078 5.14819 233.883Z" fill="#263238"/>
<path d="M20.9117 223.207C19.288 223.391 17.6801 223.687 16.1005 224.092C14.5151 224.482 12.9526 224.954 11.4193 225.503C9.88381 226.046 8.38202 226.672 6.92141 227.38C5.45378 228.072 4.03953 228.864 2.68945 229.75C4.20846 229.183 5.68019 228.514 7.18738 227.947C8.69457 227.38 10.1959 226.813 11.7149 226.246C13.2339 225.679 14.7588 225.186 16.2837 224.67C17.8086 224.154 19.3631 223.695 20.9117 223.207Z" fill="#263238"/>
<path d="M18.228 219.482C15.6065 219.809 13.0411 220.465 10.5975 221.433C8.13266 222.354 5.80545 223.584 3.67627 225.09C6.11733 224.115 8.48746 223.1 10.9108 222.187C13.3341 221.274 15.787 220.384 18.228 219.482Z" fill="#263238"/>
<path d="M71.222 152.641L43.5488 152.771C43.5488 152.771 51.0611 131.435 58.2129 122.619C65.3647 113.802 71.1038 114.965 71.7421 125.34C72.3805 135.716 71.222 152.641 71.222 152.641Z" fill="#FFC727"/>
<path d="M71.7423 125.341C71.7778 125.811 71.8014 126.304 71.8192 126.798C71.8192 127.019 71.8192 127.24 71.8546 127.467C72.2447 137.859 71.2281 152.641 71.2281 152.641L63.7099 152.68H62.9593L43.5549 152.782C43.5549 152.782 46.7407 143.711 50.9254 134.991C51.0672 134.701 51.2032 134.424 51.3569 134.117C53.4906 129.74 55.8666 125.516 58.2072 122.63C65.3649 113.802 71.0981 114.97 71.7423 125.341Z" fill="#FFC727"/>
<path d="M48.7976 152.749L54.4185 152.715C52.5505 152.505 50.6627 152.516 48.7976 152.749ZM71.5355 131.249C71.3818 130.194 71.2932 129.14 71.2281 128.079C71.1622 125.979 70.9807 123.884 70.6844 121.803C70.6016 121.321 70.5011 120.845 70.3829 120.368C70.4893 120.266 70.6016 120.176 70.7139 120.068C70.6312 119.864 70.5484 119.671 70.4598 119.501C70.377 119.586 70.2825 119.66 70.1997 119.745C70.0397 119.2 69.8423 118.666 69.6087 118.146C69.2865 117.742 68.8849 117.403 68.4265 117.148C68.9226 117.921 69.3195 118.75 69.6087 119.614C69.6678 119.801 69.721 119.989 69.7741 120.181C68.173 121.704 66.299 122.937 64.2419 123.821C62.1436 124.643 59.543 124.751 57.6693 123.413C57.557 123.561 57.4507 123.702 57.3443 123.855C58.1258 124.369 59.009 124.724 59.9392 124.898C60.8695 125.071 61.8269 125.06 62.7524 124.865C65.4654 124.371 67.7823 122.653 69.8096 120.947L69.9456 120.833C70.7967 124.337 70.4775 128.034 71.0508 131.606C71.2695 132.933 71.6419 134.271 71.9847 135.609C71.9847 134.855 71.9847 134.101 71.9847 133.341C71.7778 132.627 71.636 131.94 71.5355 131.249ZM70.0165 148.043C69.2045 148.575 68.2708 148.912 67.2944 149.024C66.3179 149.137 65.3276 149.022 64.4074 148.689C60.2227 147.402 57.7816 143.586 54.3181 141.239C52.7106 140.229 51.0113 139.359 49.2409 138.642C49.1641 138.795 49.099 138.954 49.0281 139.113C50.0093 139.561 50.9963 139.997 51.9243 140.479C52.7707 140.907 53.5809 141.398 54.3476 141.948C55.2438 142.623 56.0965 143.35 56.901 144.125C58.5027 145.622 60.0749 147.215 62.0254 148.309C63.7986 149.301 65.9205 149.931 67.9773 149.551C69.3797 149.266 70.6341 148.52 71.5237 147.442C71.5237 147.107 71.5591 146.756 71.571 146.393C71.1673 147.033 70.6396 147.593 70.0165 148.043Z" fill="white"/>
<path d="M47.1129 146.626C48.8861 146.104 61.6588 145.292 70.7137 145.871C70.7419 145.871 70.769 145.882 70.789 145.901C70.8089 145.92 70.8201 145.946 70.8201 145.973C70.8201 146 70.8089 146.026 70.789 146.045C70.769 146.065 70.7419 146.075 70.7137 146.075C69.7148 146.132 49.0043 147.21 47.1129 146.904C46.9297 146.898 46.9592 146.688 47.1129 146.626Z" fill="#263238"/>
<path d="M72.9779 136.55C72.9779 136.532 72.9704 136.515 72.9571 136.502C72.9438 136.489 72.9258 136.482 72.907 136.482C72.8882 136.482 72.8701 136.489 72.8568 136.502C72.8435 136.515 72.8361 136.532 72.8361 136.55C72.5831 137.453 72.3857 138.369 72.245 139.294C72.2036 139.504 72.1741 139.72 72.1327 139.929C72.0559 137.661 71.9436 135.456 71.8194 133.233C71.8194 133.131 71.6421 133.131 71.648 133.233C71.719 140.939 71.5062 147.975 71.0156 152.431L68.6159 152.624C68.5825 152.631 68.5525 152.648 68.5309 152.673C68.5093 152.699 68.4976 152.73 68.4976 152.763C68.4976 152.796 68.5093 152.827 68.5309 152.853C68.5525 152.878 68.5825 152.895 68.6159 152.902L71.6658 153.004C71.7958 153.004 72.3041 146.586 72.18 141.528C72.3455 140.797 72.5228 140.071 72.6469 139.334C72.8312 138.416 72.9419 137.485 72.9779 136.55Z" fill="#263238"/>
<path d="M47.2904 152.777C46.0432 152.851 44.7961 152.913 43.5549 152.947H43.3066L43.3835 152.715C43.8681 151.252 44.3646 149.795 44.9084 148.354C45.4522 146.914 46.0019 145.469 46.5929 144.045C47.184 142.622 47.775 141.21 48.4666 139.804C49.1581 138.398 49.8201 137.021 50.5943 135.677L48.8212 139.963L47.1189 144.25L45.4167 148.542L43.7204 152.862L43.5549 152.635C44.7961 152.641 46.0432 152.703 47.2904 152.777Z" fill="#263238"/>
<path d="M81.0865 127.637C76.8782 128.969 68.9345 123.294 65.5595 118.44C65.329 118.106 65.5595 103.999 65.3231 101.204C65.2699 100.637 84.0418 103.937 84.0418 103.937C84.0418 103.937 82.7711 109.958 83.2439 114.834C83.2912 115.243 85.153 126.35 81.0865 127.637Z" fill="#EB9481"/>
<path d="M84.0477 103.931C84.0477 104.016 83.9591 104.368 83.8645 104.935C83.699 105.898 83.4508 107.458 83.303 109.227C83.1206 111.085 83.1067 112.956 83.2616 114.817C83.2676 114.947 83.2834 115.075 83.3089 115.203V115.265C83.3503 115.492 83.3858 115.798 83.4271 116.161C82.8436 116.286 82.2507 116.368 81.654 116.405C71.6592 117.017 67.2381 105.558 65.9023 101.125L66.2215 101.153C66.7121 101.187 67.3623 101.261 68.1424 101.357L68.7335 101.436C69.9806 101.606 71.4701 101.833 73.0187 102.071C73.527 102.151 74.0353 102.224 74.5554 102.315C75.6666 102.502 76.7896 102.684 77.8298 102.848C78.279 102.933 78.7223 103.007 79.1361 103.075C79.5498 103.143 80.0522 103.228 80.4719 103.296L81.0629 103.398L81.3525 103.455L82.907 103.721L83.6517 103.846C83.7575 103.863 83.8621 103.885 83.965 103.914C83.9945 103.914 84.0064 103.914 84.0182 103.914L84.0477 103.931Z" fill="#263238"/>
<path d="M61.7296 80.6511C59.9565 86.9616 64.0111 104.895 68.7809 108.773C75.7081 114.392 86.7313 114.602 91.6429 106.698C96.3714 99.0383 90.6795 75.7468 85.3778 72.2542C77.564 67.1116 64.3539 71.33 61.7296 80.6511Z" fill="#EB9481"/>
<path d="M64.4428 98.2049C67.7823 97.173 66.3046 88.8384 66.3046 88.8384C66.3046 88.8384 70.2883 86.5705 70.2351 78.7688C70.2351 78.7688 74.538 85.7256 88.4574 81.632C88.4451 79.1403 87.6182 76.715 86.0931 74.6979C87.9362 76.8059 89.5967 79.0548 91.058 81.4223C91.058 81.4223 92.3406 69.5157 81.5006 67.2477C77.1859 66.3462 71.1395 67.7183 62.6756 73.7113C62.6756 73.7113 59.9035 68.6822 58.9637 69.5667C58.024 70.4512 61.0147 75.0777 61.0147 75.0777C61.0147 75.0777 56.7118 74.5675 56.1799 75.503C55.7188 76.3081 59.8326 76.6369 59.8326 76.6369C59.8326 76.6369 53.922 79.6136 56.2862 86.3323C58.4081 92.4784 62.7879 98.7209 64.4428 98.2049Z" fill="#263238"/>
<path d="M60.9436 76.3196C59.1344 76.5709 57.4833 77.4479 56.3011 78.7856C55.1189 80.1233 54.4872 81.8293 54.5248 83.5826C54.5898 85.584 55.4941 87.6025 56.4871 89.3374C57.6053 91.1792 58.9661 92.8752 60.5358 94.3836C60.6186 94.4686 60.7486 94.3269 60.6599 94.2418C59.2749 92.8088 58.1286 91.1794 57.2614 89.4111C56.3333 87.763 55.6867 85.9828 55.3463 84.1382C55.1185 82.4211 55.5718 80.6846 56.6163 79.2731C57.6607 77.8616 59.2201 76.8782 60.985 76.518C61.0095 76.51 61.03 76.4938 61.0429 76.4723C61.0558 76.4509 61.0601 76.4257 61.0551 76.4014C61.05 76.3771 61.0359 76.3554 61.0154 76.3404C60.9949 76.3253 60.9694 76.3179 60.9436 76.3196Z" fill="#263238"/>
<path d="M73.0191 66.743C70.694 67.6832 68.5081 68.9128 66.5175 70.4C64.554 71.7261 62.8427 73.3658 61.458 75.2477C61.393 75.3441 61.523 75.4575 61.6058 75.3668C64.7088 72.1747 68.7516 69.7594 72.8358 67.8543C76.6363 66.0683 81.3825 65.2575 85.0234 67.8543C85.0287 67.8615 85.0356 67.8674 85.0437 67.8716C85.0518 67.8757 85.0607 67.878 85.0699 67.8783C85.0791 67.8786 85.0882 67.8768 85.0965 67.8731C85.1048 67.8694 85.1121 67.8639 85.1178 67.857C85.1236 67.8502 85.1276 67.8421 85.1295 67.8335C85.1314 67.8249 85.1312 67.816 85.1289 67.8075C85.1267 67.799 85.1223 67.7911 85.1163 67.7845C85.1103 67.7778 85.1028 67.7726 85.0943 67.7692C81.7371 64.9797 76.9023 65.2348 73.0191 66.743Z" fill="#263238"/>
<path d="M66.4819 95.3418C66.4819 95.3418 62.1317 89.5643 59.3892 91.0611C56.6467 92.558 59.9803 100.972 63.2429 102.083C63.6512 102.253 64.0911 102.343 64.5363 102.345C64.9814 102.348 65.4226 102.265 65.8333 102.1C66.244 101.936 66.6158 101.693 66.9263 101.387C67.2368 101.081 67.4797 100.718 67.6404 100.32L66.4819 95.3418Z" fill="#EB9481"/>
<path d="M60.4059 93.4482C60.3527 93.4482 60.3468 93.5163 60.4059 93.5333C62.6933 94.3838 63.9227 96.3682 64.7915 98.4717C64.1059 97.6779 63.178 97.247 62.0609 98.0351C62.0018 98.0748 62.0609 98.1655 62.12 98.1485C62.5181 98.0206 62.9477 98.0141 63.3499 98.1298C63.752 98.2455 64.107 98.4779 64.366 98.7949C64.7926 99.324 65.161 99.894 65.4653 100.496C65.5717 100.689 65.9382 100.581 65.8613 100.354C65.8603 100.339 65.8603 100.324 65.8613 100.309C65.8436 97.5418 63.5267 93.6864 60.4059 93.4482Z" fill="#263238"/>
<path d="M81.2226 90.9477C81.2226 90.908 81.1399 91.0214 81.1458 91.0725C81.4118 92.2631 81.5004 93.6749 80.4424 94.2646C80.4361 94.2672 80.4307 94.2716 80.4269 94.2771C80.4232 94.2826 80.4211 94.2891 80.4211 94.2957C80.4211 94.3024 80.4232 94.3088 80.4269 94.3144C80.4307 94.3199 80.4361 94.3243 80.4424 94.3269C81.8078 93.896 81.6718 92.042 81.2226 90.9477Z" fill="#263238"/>
<path d="M79.8749 89.8874C77.8417 90.0858 78.3973 93.981 80.2827 93.7996C82.1682 93.6181 81.5831 89.723 79.8749 89.8874Z" fill="#263238"/>
<path d="M88.3808 89.5416C88.3808 89.4963 88.4872 89.587 88.4931 89.638C88.629 90.8457 88.9955 92.2121 90.1894 92.4729C90.2249 92.4729 90.2308 92.5409 90.1894 92.5409C88.7709 92.5296 88.304 90.7096 88.3808 89.5416Z" fill="#263238"/>
<path d="M89.326 88.1354C91.3296 87.7215 92.0448 91.594 90.1889 91.9739C88.333 92.3537 87.6474 88.4813 89.326 88.1354Z" fill="#263238"/>
<path d="M77.9721 88.7928C78.4842 88.5713 78.9834 88.3233 79.4675 88.05C80.0335 87.8627 80.5181 87.4996 80.8446 87.0181C80.9161 86.8488 80.9276 86.6617 80.8774 86.4855C80.8273 86.3093 80.7181 86.1538 80.5668 86.0429C80.2293 85.8681 79.8493 85.7828 79.4659 85.7957C79.0825 85.8087 78.7097 85.9194 78.3858 86.1166C77.6684 86.4169 77.0932 86.9626 76.7722 87.6475C76.7092 87.808 76.6958 87.9826 76.7338 88.1502C76.7717 88.3178 76.8593 88.4713 76.9861 88.5923C77.1128 88.7133 77.2733 88.7966 77.4482 88.8322C77.6232 88.8677 77.8051 88.854 77.9721 88.7928Z" fill="#263238"/>
<path d="M90.3073 86.0038C89.7466 85.9682 89.1882 85.9039 88.6346 85.811C88.0364 85.8225 87.4508 85.6453 86.9678 85.3064C86.8378 85.172 86.7579 85 86.7408 84.8173C86.7237 84.6346 86.7703 84.4517 86.8733 84.2972C87.1242 84.0203 87.4478 83.8127 87.8105 83.6961C88.1732 83.5795 88.5618 83.558 88.9361 83.6338C89.7206 83.6708 90.4616 83.9908 91.0107 84.5297C91.1303 84.6579 91.2083 84.8168 91.2352 84.987C91.262 85.1571 91.2366 85.3311 91.1619 85.4875C91.0873 85.644 90.9667 85.7762 90.8149 85.8679C90.6631 85.9596 90.4867 86.0068 90.3073 86.0038Z" fill="#263238"/>
<path d="M81.4592 101.68C81.8021 101.924 82.1567 102.248 82.6413 102.248C83.1076 102.178 83.553 102.014 83.9476 101.765C83.989 101.765 84.0362 101.765 84.0126 101.822C83.8664 102.083 83.6499 102.301 83.3858 102.454C83.1217 102.606 82.8196 102.688 82.5113 102.69C82.2454 102.659 81.9951 102.553 81.792 102.386C81.589 102.218 81.4423 101.996 81.3706 101.748C81.3174 101.68 81.3942 101.646 81.4592 101.68Z" fill="#263238"/>
<path d="M82.2629 97.8933C82.6506 98.3287 83.128 98.6823 83.6651 98.9321C84.2021 99.1819 84.7873 99.3224 85.3837 99.3448C85.904 99.3702 86.4254 99.3244 86.9323 99.2087C87.0304 99.1927 87.1272 99.17 87.2219 99.1407L87.4938 99.0613C87.5586 99.0403 87.6144 98.9996 87.6529 98.9454C87.6913 98.8911 87.7101 98.8263 87.7065 98.7608L87.677 98.6361V98.5283C87.5647 97.5985 87.2692 96.198 87.2692 96.198C87.6474 96.3228 89.5625 96.8614 89.4679 96.3795C88.6404 92.4106 87.7243 87.9655 86.028 84.1667C86.0193 84.1374 85.9989 84.1125 85.9712 84.0977C85.9435 84.0828 85.9108 84.0791 85.8802 84.0873C85.8496 84.0956 85.8237 84.1152 85.8082 84.1418C85.7927 84.1683 85.7888 84.1997 85.7974 84.2291C86.4358 88.0902 87.7716 91.8153 88.4749 95.6821C87.7935 95.4772 87.0848 95.3684 86.3708 95.3589C86.2407 95.4156 86.9914 98.0577 87.0091 98.4773C87.0105 98.4924 87.0105 98.5076 87.0091 98.5227C85.4133 98.9366 84.1188 98.6247 82.3871 97.7856C82.2629 97.7119 82.1743 97.8083 82.2629 97.8933Z" fill="#263238"/>
<path d="M86.2941 98.8114C85.8587 99.5445 85.2338 100.158 84.4795 100.592C84.0611 100.817 83.5792 100.911 83.1024 100.858C82.0621 100.739 81.9203 99.8603 81.9853 99.0779C82.0293 98.6622 82.1246 98.253 82.269 97.8589C83.4704 98.5801 84.8808 98.9139 86.2941 98.8114Z" fill="#263238"/>
<path d="M84.4795 100.592C84.0611 100.818 83.5792 100.911 83.1024 100.858C82.0621 100.739 81.9203 99.8606 81.9853 99.0781C83.0787 99.0441 84.2431 99.5998 84.4795 100.592Z" fill="#FF9ABB"/>
<path d="M141.382 45.5931C140.349 45.5931 139.542 45.3098 138.962 44.7431C138.382 44.1765 138.092 43.3731 138.092 42.3331V38.4531H140.072V42.2731C140.072 42.8731 140.189 43.3031 140.422 43.5631C140.662 43.8231 140.989 43.9531 141.402 43.9531C141.815 43.9531 142.139 43.8231 142.372 43.5631C142.605 43.3031 142.722 42.8731 142.722 42.2731V38.4531H144.672V42.3331C144.672 43.3731 144.382 44.1765 143.802 44.7431C143.222 45.3098 142.415 45.5931 141.382 45.5931ZM148.473 45.5931C147.9 45.5931 147.347 45.5231 146.813 45.3831C146.287 45.2365 145.857 45.0498 145.523 44.8231L146.173 43.3631C146.487 43.5631 146.847 43.7298 147.253 43.8631C147.667 43.9898 148.077 44.0531 148.483 44.0531C148.757 44.0531 148.977 44.0298 149.143 43.9831C149.31 43.9298 149.43 43.8631 149.503 43.7831C149.583 43.6965 149.623 43.5965 149.623 43.4831C149.623 43.3231 149.55 43.1965 149.403 43.1031C149.257 43.0098 149.067 42.9331 148.833 42.8731C148.6 42.8131 148.34 42.7531 148.053 42.6931C147.773 42.6331 147.49 42.5565 147.203 42.4631C146.923 42.3698 146.667 42.2498 146.433 42.1031C146.2 41.9498 146.01 41.7531 145.863 41.5131C145.717 41.2665 145.643 40.9565 145.643 40.5831C145.643 40.1631 145.757 39.7831 145.983 39.4431C146.217 39.1031 146.563 38.8298 147.023 38.6231C147.483 38.4165 148.057 38.3131 148.743 38.3131C149.203 38.3131 149.653 38.3665 150.093 38.4731C150.54 38.5731 150.937 38.7231 151.283 38.9231L150.673 40.3931C150.34 40.2131 150.01 40.0798 149.683 39.9931C149.357 39.8998 149.04 39.8531 148.733 39.8531C148.46 39.8531 148.24 39.8831 148.073 39.9431C147.907 39.9965 147.787 40.0698 147.713 40.1631C147.64 40.2565 147.603 40.3631 147.603 40.4831C147.603 40.6365 147.673 40.7598 147.813 40.8531C147.96 40.9398 148.15 41.0131 148.383 41.0731C148.623 41.1265 148.883 41.1831 149.163 41.2431C149.45 41.3031 149.733 41.3798 150.013 41.4731C150.3 41.5598 150.56 41.6798 150.793 41.8331C151.027 41.9798 151.213 42.1765 151.353 42.4231C151.5 42.6631 151.573 42.9665 151.573 43.3331C151.573 43.7398 151.457 44.1165 151.223 44.4631C150.997 44.8031 150.653 45.0765 150.193 45.2831C149.74 45.4898 149.167 45.5931 148.473 45.5931ZM153.88 45.4531V40.0231H151.73V38.4531H158V40.0231H155.86V45.4531H153.88ZM157.547 45.4531L160.637 38.4531H162.587L165.687 45.4531H163.627L161.207 39.4231H161.987L159.567 45.4531H157.547ZM159.237 44.0931L159.747 42.6331H163.167L163.677 44.0931H159.237Z" fill="black"/>
</svg>
