<svg width="454" height="100" viewBox="0 0 454 100" fill="none" xmlns="http://www.w3.org/2000/svg">
<path d="M336.734 0H232.532V100H336.734V0Z" fill="#55F4B7"/>
<path d="M104.202 0H0V100H104.202V0Z" fill="#55F4B7"/>
<path d="M52.318 66.838C47.358 66.838 43.486 65.478 40.702 62.758C37.918 60.038 36.526 56.182 36.526 51.19V32.566H46.03V50.902C46.03 53.782 46.59 55.846 47.71 57.094C48.862 58.342 50.43 58.966 52.414 58.966C54.398 58.966 55.95 58.342 57.07 57.094C58.19 55.846 58.75 53.782 58.75 50.902V32.566H68.11V51.19C68.11 56.182 66.718 60.038 63.934 62.758C61.15 65.478 57.278 66.838 52.318 66.838Z" fill="white"/>
<path d="M220.468 0H116.266V100H220.468V0Z" fill="#55F4B7"/>
<path d="M169.133 66.838C166.381 66.838 163.725 66.502 161.165 65.83C158.637 65.126 156.573 64.23 154.973 63.142L158.093 56.134C159.597 57.094 161.325 57.894 163.277 58.534C165.261 59.142 167.229 59.446 169.181 59.446C170.493 59.446 171.549 59.334 172.349 59.11C173.149 58.854 173.725 58.534 174.077 58.15C174.461 57.734 174.653 57.254 174.653 56.71C174.653 55.942 174.301 55.334 173.597 54.886C172.893 54.438 171.981 54.07 170.861 53.782C169.741 53.494 168.493 53.206 167.117 52.918C165.773 52.63 164.413 52.262 163.037 51.814C161.693 51.366 160.461 50.79 159.341 50.086C158.221 49.35 157.309 48.406 156.605 47.254C155.901 46.07 155.549 44.582 155.549 42.79C155.549 40.774 156.093 38.95 157.181 37.318C158.301 35.686 159.965 34.374 162.173 33.382C164.381 32.39 167.133 31.894 170.429 31.894C172.637 31.894 174.797 32.15 176.909 32.662C179.053 33.142 180.957 33.862 182.621 34.822L179.693 41.878C178.093 41.014 176.509 40.374 174.941 39.958C173.373 39.51 171.853 39.286 170.381 39.286C169.069 39.286 168.013 39.43 167.213 39.718C166.413 39.974 165.837 40.326 165.485 40.774C165.133 41.222 164.957 41.734 164.957 42.31C164.957 43.046 165.293 43.638 165.965 44.086C166.669 44.502 167.581 44.854 168.701 45.142C169.853 45.398 171.101 45.67 172.445 45.958C173.821 46.246 175.181 46.614 176.525 47.062C177.901 47.478 179.149 48.054 180.269 48.79C181.389 49.494 182.285 50.438 182.957 51.622C183.661 52.774 184.013 54.23 184.013 55.99C184.013 57.942 183.453 59.75 182.333 61.414C181.245 63.046 179.597 64.358 177.389 65.35C175.213 66.342 172.461 66.838 169.133 66.838Z" fill="white"/>
<path d="M278.64 66.166V40.102H268.32V32.566H298.416V40.102H288.144V66.166H278.64Z" fill="white"/>
<path d="M453.15 0H348.949V100H453.15V0Z" fill="#55F4B7"/>
<path d="M381.58 66.166L396.412 32.566H405.772L420.652 66.166H410.764L399.148 37.222H402.892L391.276 66.166H381.58ZM389.692 59.638L392.14 52.63H408.556L411.004 59.638H389.692Z" fill="white"/>
</svg>
