<svg width="454" height="101" viewBox="0 0 454 101" fill="none" xmlns="http://www.w3.org/2000/svg">
<path d="M336.734 0.453125H232.532V100.453H336.734V0.453125Z" fill="#FFA500"/>
<path d="M104.202 0.453125H0V100.453H104.202V0.453125Z" fill="#FFA500"/>
<path d="M52.318 67.2911C47.358 67.2911 43.486 65.9311 40.702 63.2111C37.918 60.4911 36.526 56.6351 36.526 51.6431V33.0191H46.03V51.3551C46.03 54.2351 46.59 56.2991 47.71 57.5471C48.862 58.7951 50.43 59.4191 52.414 59.4191C54.398 59.4191 55.95 58.7951 57.07 57.5471C58.19 56.2991 58.75 54.2351 58.75 51.3551V33.0191H68.11V51.6431C68.11 56.6351 66.718 60.4911 63.934 63.2111C61.15 65.9311 57.278 67.2911 52.318 67.2911Z" fill="white"/>
<path d="M220.468 0.453125H116.266V100.453H220.468V0.453125Z" fill="#FFA500"/>
<path d="M169.133 67.2911C166.381 67.2911 163.725 66.9551 161.165 66.2831C158.637 65.5791 156.573 64.6831 154.973 63.5951L158.093 56.5871C159.597 57.5471 161.325 58.3471 163.277 58.9871C165.261 59.5951 167.229 59.8991 169.181 59.8991C170.493 59.8991 171.549 59.7871 172.349 59.5631C173.149 59.3071 173.725 58.9871 174.077 58.6031C174.461 58.1871 174.653 57.7071 174.653 57.1631C174.653 56.3951 174.301 55.7871 173.597 55.3391C172.893 54.8911 171.981 54.5231 170.861 54.2351C169.741 53.9471 168.493 53.6591 167.117 53.3711C165.773 53.0831 164.413 52.7151 163.037 52.2671C161.693 51.8191 160.461 51.2431 159.341 50.5391C158.221 49.8031 157.309 48.8591 156.605 47.7071C155.901 46.5231 155.549 45.0351 155.549 43.2431C155.549 41.2271 156.093 39.4031 157.181 37.7711C158.301 36.1391 159.965 34.8271 162.173 33.8351C164.381 32.8431 167.133 32.3471 170.429 32.3471C172.637 32.3471 174.797 32.6031 176.909 33.1151C179.053 33.5951 180.957 34.3151 182.621 35.2751L179.693 42.3311C178.093 41.4671 176.509 40.8271 174.941 40.4111C173.373 39.9631 171.853 39.7391 170.381 39.7391C169.069 39.7391 168.013 39.8831 167.213 40.1711C166.413 40.4271 165.837 40.7791 165.485 41.2271C165.133 41.6751 164.957 42.1871 164.957 42.7631C164.957 43.4991 165.293 44.0911 165.965 44.5391C166.669 44.9551 167.581 45.3071 168.701 45.5951C169.853 45.8511 171.101 46.1231 172.445 46.4111C173.821 46.6991 175.181 47.0671 176.525 47.5151C177.901 47.9311 179.149 48.5071 180.269 49.2431C181.389 49.9471 182.285 50.8911 182.957 52.0751C183.661 53.2271 184.013 54.6831 184.013 56.4431C184.013 58.3951 183.453 60.2031 182.333 61.8671C181.245 63.4991 179.597 64.8111 177.389 65.8031C175.213 66.7951 172.461 67.2911 169.133 67.2911Z" fill="white"/>
<path d="M278.64 66.6191V40.5551H268.32V33.0191H298.416V40.5551H288.144V66.6191H278.64Z" fill="white"/>
<path d="M453.15 0.453125H348.949V100.453H453.15V0.453125Z" fill="#FFA500"/>
<path d="M381.58 66.6191L396.412 33.0191H405.772L420.652 66.6191H410.764L399.148 37.6751H402.892L391.276 66.6191H381.58ZM389.692 60.0911L392.14 53.0831H408.556L411.004 60.0911H389.692Z" fill="white"/>
</svg>
