<svg width="220" height="44" viewBox="0 0 220 44" fill="none" xmlns="http://www.w3.org/2000/svg">
<path d="M15.6819 0.82077C9.63324 2.41358 4.55463 6.47798 2.15799 11.6958C-2.00761 20.7583 -0.0104046 31.6333 7.00834 37.8398C12.7717 42.8379 21.3312 44.6504 28.464 42.3436C32.2302 41.0803 36.3958 38.6636 36.8523 37.4553C36.9664 37.0708 35.9963 35.7527 34.741 34.4894C32.5726 32.4023 32.2872 32.2924 31.3742 33.1163C27.8934 36.1371 20.5323 37.1258 16.1384 35.2034C5.23939 30.4799 4.38344 14.8265 14.7118 8.94957C17.3938 7.41169 18.3068 7.13707 21.6165 7.13707C25.5538 7.13707 28.8064 8.07079 30.1189 9.55374C31.2601 10.9268 33.2003 10.5973 35.1975 8.56511C37.537 6.25828 37.3088 5.48934 33.7138 3.29237C28.5211 0.106754 21.8447 -0.826962 15.6819 0.82077Z" fill="white"/>
<path d="M54.4278 0.876783C50.7187 1.97527 46.0966 6.42414 44.7842 10.1041C42.6158 16.2556 44.0424 22.2424 48.6645 26.7462C53.1724 31.0303 58.4793 32.2386 64.9845 30.4261C69.4924 29.1628 74.0575 24.6041 75.3699 19.9905C75.8835 18.178 76.34 16.2007 76.34 15.6514C76.34 15.1022 75.8835 13.1249 75.3699 11.3124C74.0575 6.69876 69.4924 2.14004 64.9845 0.876783C61.1612 -0.221703 58.1369 -0.166779 54.4278 0.876783ZM64.7562 8.29157C67.0958 9.66468 68.9218 12.9601 68.9218 15.7064C68.9218 22.1325 60.7047 26.4715 55.1696 22.9014C52.4306 21.1988 50.4334 17.1344 50.947 14.3333C51.9741 8.40142 59.4494 5.10596 64.7562 8.29157Z" fill="white"/>
<path d="M85.1848 1.14951C85.0136 1.58891 84.9565 11.0908 85.0136 22.2405L85.1848 42.5625L90.0351 42.7272C100.078 43.0568 107.439 41.0246 112.061 36.5757C116.17 32.5662 117.597 28.8863 117.654 21.6912C117.711 15.4848 117.083 12.8484 114.515 9.16847C110.692 3.56618 104.472 1.14951 93.0595 0.710121C86.8967 0.435497 85.413 0.545345 85.1848 1.14951ZM102.247 8.45445C104.872 9.49802 107.611 11.9147 109.037 14.4961C110.806 17.6817 110.806 25.5909 109.037 28.8863C107.668 31.3579 104.929 33.8295 102.646 34.7083C99.6788 35.8068 94.0295 36.356 93.1736 35.6969C92.4888 35.1477 92.3176 32.6761 92.3176 21.4166C92.3176 14.0018 92.4888 7.68551 92.7742 7.46582C93.3448 6.86165 100.078 7.57566 102.247 8.45445Z" fill="white"/>
<path d="M124.272 1.64536C123.93 2.30445 123.702 3.73249 123.816 4.83097C123.987 6.75333 124.101 6.86317 126.27 7.1378L128.552 7.41242V21.6928C128.552 35.5337 128.495 35.9731 127.411 36.1379C123.645 36.6871 123.702 36.6322 123.702 39.8178V42.8936L132.432 42.7288L141.106 42.564L141.277 40.2023C141.505 37.2913 140.706 36.2477 138.196 36.2477H136.256V21.7477V7.30257L138.538 6.9181L140.821 6.58855V3.56771V0.546875H132.832C125.414 0.546875 124.843 0.601799 124.272 1.64536Z" fill="white"/>
<path d="M148.468 1.31611C148.297 1.70058 148.24 10.9828 148.354 21.9127C148.525 44.1571 148.297 42.9488 152.805 42.7291L155.373 42.5643L155.658 34.051L155.943 25.5377L164.331 25.2631C169.353 25.0984 173.005 24.7688 173.347 24.3843C173.69 24.0548 173.918 22.5718 173.804 21.0889L173.633 18.3976L164.788 18.123L155.943 17.8483V12.9051V7.96196L166.5 7.63241C172.32 7.46764 177.114 7.30286 177.171 7.24794C177.57 6.75362 177.912 2.57937 177.627 1.64566C177.285 0.602093 176.885 0.547169 163.019 0.547169C151.549 0.547169 148.696 0.711945 148.468 1.31611Z" fill="white"/>
<path d="M180.194 0.876942C180.194 1.04172 183.789 5.98491 188.183 11.9167L196.172 22.6819V31.9092C196.172 42.6195 196.343 43.0039 200.68 42.7293L203.305 42.5645L203.59 32.5683L203.875 22.627L206.215 19.3864C207.47 17.6289 211.008 12.8505 214.033 8.73112C217.057 4.6118 219.568 1.09664 219.568 0.876942C219.568 0.71217 217.685 0.547398 215.345 0.547398H211.122L205.53 8.07203C200.166 15.322 199.938 15.5417 199.082 14.4433C198.569 13.8391 196.058 10.4338 193.433 6.91862L188.697 0.547398H184.417C182.077 0.547398 180.194 0.71217 180.194 0.876942Z" fill="white"/>
<path d="M46.3244 36.1371C45.3543 36.7413 44.8407 40.4761 45.5255 41.7394C46.0961 42.783 46.6668 42.8379 59.1065 42.8379C74.2282 42.8379 74.2282 42.8379 73.9429 38.7186L73.7717 35.9723L60.3619 35.8625C53.0007 35.7526 46.6668 35.8625 46.3244 36.1371Z" fill="white"/>
</svg>
