<svg width="150" height="34" viewBox="0 0 150 34" fill="none" xmlns="http://www.w3.org/2000/svg">
<path d="M10.7133 1.07248C6.58107 2.28886 3.11155 5.39272 1.47426 9.37742C-1.37152 16.2982 -0.00710801 24.6031 4.78783 29.3428C8.72515 33.1597 14.5726 34.5439 19.4455 32.7822C22.0184 31.8175 24.8642 29.972 25.1761 29.0492C25.2541 28.7556 24.5913 27.7489 23.7337 26.7842C22.2523 25.1903 22.0574 25.1065 21.4337 25.7356C19.0557 28.0425 14.0269 28.7975 11.0252 27.3295C3.57935 23.7223 2.9946 11.7682 10.0506 7.28021C11.8828 6.10578 12.5065 5.89606 14.7676 5.89606C17.4574 5.89606 19.6794 6.6091 20.5761 7.7416C21.3557 8.7902 22.6812 8.53853 24.0456 6.9866C25.6439 5.22495 25.488 4.63773 23.032 2.95997C19.4845 0.52721 14.9235 -0.185841 10.7133 1.07248Z" fill="white"/>
<path d="M37.1825 1.11506C34.6486 1.95394 31.4909 5.35141 30.5943 8.16167C29.113 12.8594 30.0875 17.4313 33.2452 20.8707C36.3249 24.1424 39.9503 25.0651 44.3944 23.681C47.4741 22.7163 50.5927 19.2349 51.4894 15.7116C51.8402 14.3275 52.1521 12.8175 52.1521 12.398C52.1521 11.9786 51.8402 10.4686 51.4894 9.08444C50.5927 5.56113 47.4741 2.07977 44.3944 1.11506C41.7825 0.276176 39.7164 0.318121 37.1825 1.11506ZM44.2385 6.77751C45.8368 7.82612 47.0842 10.3428 47.0842 12.44C47.0842 17.3474 41.4707 20.661 37.6893 17.9346C35.8181 16.6344 34.4537 13.5305 34.8045 11.3914C35.5062 6.8614 40.613 4.34476 44.2385 6.77751Z" fill="white"/>
<path d="M58.195 1.32355C58.0781 1.6591 58.0391 8.91543 58.0781 17.4301L58.195 32.9494L61.5086 33.0752C68.3697 33.3269 73.3985 31.775 76.5562 28.3775C79.363 25.3156 80.3375 22.5053 80.3765 17.0106C80.4155 12.271 79.9867 10.2576 78.2324 7.44739C75.6206 3.16909 71.3714 1.32355 63.5747 0.987995C59.3645 0.778275 58.351 0.86216 58.195 1.32355ZM69.851 6.90211C71.6443 7.69905 73.5155 9.54459 74.4901 11.516C75.6985 13.9487 75.6985 19.9887 74.4901 22.5053C73.5545 24.3928 71.6833 26.2803 70.1239 26.9514C68.0968 27.7903 64.2375 28.2097 63.6527 27.7064C63.1849 27.287 63.068 25.3995 63.068 16.8009C63.068 11.1385 63.1849 6.3149 63.3798 6.14712C63.7697 5.68573 68.3697 6.23101 69.851 6.90211Z" fill="white"/>
<path d="M84.8987 1.70212C84.6648 2.20545 84.5088 3.29599 84.5868 4.13488C84.7037 5.60292 84.7817 5.68681 86.2631 5.89653L87.8224 6.10625V17.0117C87.8224 27.5816 87.7834 27.9172 87.0427 28.043C84.4698 28.4625 84.5088 28.4205 84.5088 30.8533V33.2021L90.4733 33.0763L96.3987 32.9505L96.5157 31.1469C96.6716 28.9238 96.1258 28.1269 94.4106 28.1269H93.0851V17.0537V6.02236L94.6445 5.72875L96.2038 5.47709V3.17016V0.863235H90.7461C85.6783 0.863235 85.2885 0.905178 84.8987 1.70212Z" fill="white"/>
<path d="M101.428 1.45105C101.311 1.74466 101.272 8.83321 101.35 17.1801C101.467 34.1675 101.311 33.2447 104.39 33.0769L106.145 32.9511L106.34 26.4497L106.534 19.9484L112.265 19.7387C115.695 19.6129 118.19 19.3612 118.424 19.0676C118.658 18.8159 118.814 17.6834 118.736 16.5509L118.619 14.4957L112.577 14.2859L106.534 14.0762V10.3013V6.52629L113.746 6.27462C117.723 6.14879 120.997 6.02296 121.036 5.98102C121.309 5.60352 121.543 2.41577 121.348 1.70272C121.114 0.905777 120.841 0.863834 111.368 0.863834C103.533 0.863834 101.584 0.989666 101.428 1.45105Z" fill="white"/>
<path d="M123.102 1.1151C123.102 1.24093 125.558 5.0159 128.559 9.54587L134.017 17.7669V24.8135C134.017 32.9926 134.134 33.2862 137.097 33.0765L138.89 32.9507L139.085 25.3169L139.28 17.725L140.878 15.2503C141.736 13.9081 144.153 10.2589 146.219 7.11311C148.285 3.9673 150 1.28288 150 1.1151C150 0.989265 148.714 0.863434 147.115 0.863434H144.23L140.41 6.60978C136.746 12.1464 136.59 12.3142 136.005 11.4753C135.654 11.0139 133.939 8.41337 132.146 5.72895L128.91 0.863434H125.986C124.388 0.863434 123.102 0.989265 123.102 1.1151Z" fill="white"/>
<path d="M31.6462 28.0425C30.9835 28.5039 30.6327 31.3561 31.1005 32.3208C31.4903 33.1177 31.8801 33.1597 40.3785 33.1597C50.709 33.1597 50.709 33.1597 50.5141 30.0139L50.3972 27.9167L41.2361 27.8328C36.2073 27.7489 31.8801 27.8328 31.6462 28.0425Z" fill="white"/>
</svg>
