<svg width="150" height="159" viewBox="0 0 150 159" fill="none" xmlns="http://www.w3.org/2000/svg">
<path d="M61.7332 34.4848C60.6665 36.3928 56.6665 49.2542 56.6665 50.8795C56.6665 51.9395 57.2665 53.5648 57.9332 54.4835C59.1332 56.1088 59.6665 56.1795 68.7998 56.3915L78.3998 56.6035L79.1332 54.2715C79.5332 52.9995 80.7998 49.2542 81.9998 45.9328C84.1998 39.5022 84.1998 37.6648 81.8665 35.3328C80.5332 34.0609 79.5332 33.9195 71.2665 33.9195C66.1998 33.9195 61.9332 34.2022 61.7332 34.4848Z" fill="white"/>
<path d="M58.6666 67.769L44.9999 68.193L39.1999 74.553C36.0666 78.0156 33.5999 81.125 33.7999 81.4783C33.9999 81.761 36.8666 81.973 40.1999 81.973C43.5999 81.9023 46.2666 82.1143 46.1999 82.397C46.1333 82.7503 44.6666 87.1316 42.9333 92.2196C34.7333 116.317 34.5999 116.67 37.3999 120.91C39.9333 124.726 42.1333 125.221 55.1999 124.656L66.9999 124.232L70.5333 120.628C74.2666 116.741 74.7333 117.094 72.9999 122.253C72.4666 123.878 71.9999 125.292 71.9999 125.362C71.9999 125.362 79.0666 125.221 87.7333 124.938L103.467 124.514L108.933 118.296C111.867 114.904 114.467 111.865 114.533 111.582C114.667 111.229 111.933 110.946 108.4 110.946C104.867 110.946 102 110.664 102 110.31C102 109.816 114.533 73.069 116.333 68.3343C116.8 67.2036 116.067 67.133 104.333 67.2743L91.7999 67.4863L84.3999 89.0396L76.9999 110.593L69.1333 110.805C64.8666 110.876 61.3333 110.805 61.3333 110.522C61.3333 110.098 73.4666 74.4116 75.6666 68.3343C76.0666 67.345 75.7999 67.133 74.2666 67.2743C73.1999 67.345 66.1999 67.557 58.6666 67.769Z" fill="white"/>
</svg>
