<svg width="50" height="40" viewBox="0 0 50 40" fill="none" xmlns="http://www.w3.org/2000/svg">
<path d="M16.9071 1.00725C16.2618 1.80977 13.8418 7.21936 13.8418 7.90299C13.8418 8.34883 14.2048 9.03246 14.6081 9.41886C15.3341 10.1025 15.6568 10.1322 21.1825 10.2214L26.9905 10.3105L27.4342 9.32969C27.6762 8.79467 28.4425 7.21936 29.1685 5.82238C30.4995 3.11758 30.4995 2.34479 29.0878 1.36393C28.2812 0.828915 27.6762 0.769469 22.6748 0.769469C19.6095 0.769469 17.0281 0.888361 16.9071 1.00725Z" fill="white"/>
<path d="M15.0513 15.0067L6.78289 15.1851L3.27388 17.8601C1.37821 19.3166 -0.114129 20.6244 0.00687147 20.773C0.127872 20.8919 1.86221 20.981 3.87888 20.981C5.93589 20.9513 7.54923 21.0405 7.5089 21.1594C7.46856 21.308 6.58123 23.1508 5.53256 25.2909C0.57154 35.4264 0.490873 35.575 2.18488 37.3584C3.71755 38.9635 5.04856 39.1715 12.9539 38.9337L20.0929 38.7554L22.2306 37.2395C24.4893 35.6048 24.7716 35.7534 23.7229 37.9231C23.4003 38.6068 23.1179 39.2012 23.1179 39.231C23.1179 39.231 27.3933 39.1715 32.6366 39.0526L42.1553 38.8743L45.4627 36.2587C47.2374 34.832 48.8104 33.5539 48.8507 33.435C48.9314 33.2864 47.2777 33.1675 45.14 33.1675C43.0023 33.1675 41.268 33.0486 41.268 32.9C41.268 32.6919 48.8507 17.2359 49.9397 15.2445C50.222 14.7689 49.7784 14.7392 42.6797 14.7987L35.097 14.8878L30.62 23.9533L26.143 33.0189L21.3836 33.108C18.8023 33.1377 16.6646 33.108 16.6646 32.9891C16.6646 32.8108 24.0053 17.8007 25.3363 15.2445C25.5783 14.8284 25.417 14.7392 24.4893 14.7987C23.8439 14.8284 19.6089 14.9176 15.0513 15.0067Z" fill="white"/>
</svg>
