<svg width="152" height="34" viewBox="0 0 152 34" fill="none" xmlns="http://www.w3.org/2000/svg">
<path d="M112.988 0H78.0242V34H112.988V0Z" fill="#FFA500"/>
<path d="M34.9639 0H0V34H34.9639V0Z" fill="#FFA500"/>
<path d="M17.5038 25.1724C15.0238 25.1724 13.0878 24.4924 11.6958 23.1324C10.3038 21.7724 9.60778 19.8444 9.60778 17.3484V8.03642H14.3598V17.2044C14.3598 18.6444 14.6398 19.6764 15.1998 20.3004C15.7758 20.9244 16.5598 21.2364 17.5518 21.2364C18.5438 21.2364 19.3198 20.9244 19.8798 20.3004C20.4398 19.6764 20.7198 18.6444 20.7198 17.2044V8.03642H25.3998V17.3484C25.3998 19.8444 24.7038 21.7724 23.3118 23.1324C21.9198 24.4924 19.9838 25.1724 17.5038 25.1724Z" fill="white"/>
<path d="M73.9759 0H39.012V34H73.9759V0Z" fill="#FFA500"/>
<path d="M56.6392 25.1724C55.2632 25.1724 53.9352 25.0044 52.6552 24.6684C51.3912 24.3164 50.3592 23.8684 49.5592 23.3244L51.1192 19.8204C51.8712 20.3004 52.7352 20.7004 53.7112 21.0204C54.7032 21.3244 55.6872 21.4764 56.6632 21.4764C57.3192 21.4764 57.8472 21.4204 58.2472 21.3084C58.6472 21.1804 58.9352 21.0204 59.1112 20.8284C59.3032 20.6204 59.3992 20.3804 59.3992 20.1084C59.3992 19.7244 59.2232 19.4204 58.8712 19.1964C58.5192 18.9724 58.0632 18.7884 57.5032 18.6444C56.9432 18.5004 56.3192 18.3564 55.6312 18.2124C54.9592 18.0684 54.2792 17.8844 53.5912 17.6604C52.9192 17.4364 52.3032 17.1484 51.7432 16.7964C51.1832 16.4284 50.7272 15.9564 50.3752 15.3804C50.0232 14.7884 49.8472 14.0444 49.8472 13.1484C49.8472 12.1404 50.1192 11.2284 50.6632 10.4124C51.2232 9.59643 52.0552 8.94043 53.1592 8.44443C54.2632 7.94842 55.6392 7.70042 57.2872 7.70042C58.3912 7.70042 59.4712 7.82842 60.5272 8.08443C61.5992 8.32443 62.5512 8.68442 63.3832 9.16442L61.9192 12.6924C61.1192 12.2604 60.3272 11.9404 59.5432 11.7324C58.7592 11.5084 57.9992 11.3964 57.2632 11.3964C56.6072 11.3964 56.0792 11.4684 55.6792 11.6124C55.2792 11.7404 54.9912 11.9164 54.8152 12.1404C54.6392 12.3644 54.5512 12.6204 54.5512 12.9084C54.5512 13.2764 54.7192 13.5724 55.0552 13.7964C55.4072 14.0044 55.8632 14.1804 56.4232 14.3244C56.9992 14.4524 57.6232 14.5884 58.2952 14.7324C58.9832 14.8764 59.6632 15.0604 60.3352 15.2844C61.0232 15.4924 61.6472 15.7804 62.2072 16.1484C62.7672 16.5004 63.2152 16.9724 63.5512 17.5644C63.9032 18.1404 64.0792 18.8684 64.0792 19.7484C64.0792 20.7244 63.7992 21.6284 63.2392 22.4604C62.6952 23.2764 61.8712 23.9324 60.7672 24.4284C59.6792 24.9244 58.3032 25.1724 56.6392 25.1724Z" fill="white"/>
<path d="M92.6681 24.8364V11.8044H87.5081V8.03642H102.556V11.8044H97.4201V24.8364H92.6681Z" fill="white"/>
<path d="M152 0H117.036V34H152V0Z" fill="#FFA500"/>
<path d="M124.772 24.8364L132.188 8.03642H136.868L144.308 24.8364H139.364L133.556 10.3644H135.428L129.62 24.8364H124.772ZM128.828 21.5724L130.052 18.0684H138.26L139.484 21.5724H128.828Z" fill="white"/>
</svg>
