<svg width="31" height="28" viewBox="0 0 31 28" fill="none" xmlns="http://www.w3.org/2000/svg">
<path d="M19.7344 11.9531C19.6406 11.5781 19.3438 11.2812 18.9844 11.1875C18.3125 11 15.6562 11 15.6562 11C15.6562 11 12.9844 11 12.3125 11.1875C11.9531 11.2812 11.6562 11.5781 11.5625 11.9531C11.375 12.6094 11.375 14.0156 11.375 14.0156C11.375 14.0156 11.375 15.4062 11.5625 16.0781C11.6562 16.4531 11.9531 16.7344 12.3125 16.8281C12.9844 17 15.6562 17 15.6562 17C15.6562 17 18.3125 17 18.9844 16.8281C19.3438 16.7344 19.6406 16.4531 19.7344 16.0781C19.9219 15.4062 19.9219 14.0156 19.9219 14.0156C19.9219 14.0156 19.9219 12.6094 19.7344 11.9531ZM14.7812 15.2812V12.75L17 14.0156L14.7812 15.2812Z" fill="#FFC727"/>
<rect x="1.15625" y="0.5" width="29" height="27" rx="13.5" stroke="#FFA500"/>
</svg>
