<svg width="31" height="28" viewBox="0 0 31 28" fill="none" xmlns="http://www.w3.org/2000/svg">
<path d="M15.6562 12.2031C14.6562 12.2031 13.8594 13.0156 13.8594 14C13.8594 15 14.6562 15.7969 15.6562 15.7969C16.6406 15.7969 17.4531 15 17.4531 14C17.4531 13.0156 16.6406 12.2031 15.6562 12.2031ZM15.6562 15.1719C15.0156 15.1719 14.4844 14.6562 14.4844 14C14.4844 13.3594 15 12.8438 15.6562 12.8438C16.2969 12.8438 16.8125 13.3594 16.8125 14C16.8125 14.6562 16.2969 15.1719 15.6562 15.1719ZM17.9375 12.1406C17.9375 11.9062 17.75 11.7188 17.5156 11.7188C17.2812 11.7188 17.0938 11.9062 17.0938 12.1406C17.0938 12.375 17.2812 12.5625 17.5156 12.5625C17.75 12.5625 17.9375 12.375 17.9375 12.1406ZM19.125 12.5625C19.0938 12 18.9688 11.5 18.5625 11.0938C18.1562 10.6875 17.6562 10.5625 17.0938 10.5312C16.5156 10.5 14.7812 10.5 14.2031 10.5312C13.6406 10.5625 13.1562 10.6875 12.7344 11.0938C12.3281 11.5 12.2031 12 12.1719 12.5625C12.1406 13.1406 12.1406 14.875 12.1719 15.4531C12.2031 16.0156 12.3281 16.5 12.7344 16.9219C13.1562 17.3281 13.6406 17.4531 14.2031 17.4844C14.7812 17.5156 16.5156 17.5156 17.0938 17.4844C17.6562 17.4531 18.1562 17.3281 18.5625 16.9219C18.9688 16.5 19.0938 16.0156 19.125 15.4531C19.1562 14.875 19.1562 13.1406 19.125 12.5625ZM18.375 16.0625C18.2656 16.375 18.0156 16.6094 17.7188 16.7344C17.25 16.9219 16.1562 16.875 15.6562 16.875C15.1406 16.875 14.0469 16.9219 13.5938 16.7344C13.2812 16.6094 13.0469 16.375 12.9219 16.0625C12.7344 15.6094 12.7812 14.5156 12.7812 14C12.7812 13.5 12.7344 12.4062 12.9219 11.9375C13.0469 11.6406 13.2812 11.4062 13.5938 11.2812C14.0469 11.0938 15.1406 11.1406 15.6562 11.1406C16.1562 11.1406 17.25 11.0938 17.7188 11.2812C18.0156 11.3906 18.25 11.6406 18.375 11.9375C18.5625 12.4062 18.5156 13.5 18.5156 14C18.5156 14.5156 18.5625 15.6094 18.375 16.0625Z" fill="#FFC727"/>
<rect x="1.15625" y="0.5" width="29" height="27" rx="13.5" stroke="#FFA500"/>
</svg>
